# Blender 5.0.1
# www.blender.org
mtllib Asteroid_1.mtl
o Cube
v -0.658987 -0.658987 0.658987
v -0.541318 0.541318 0.541318
v -0.395667 -0.395667 -0.395667
v -0.460376 0.460376 -0.460376
v 0.529151 -0.529151 0.529151
v 0.473145 0.473145 0.473145
v 0.502098 -0.502098 -0.502098
v 0.594841 0.594840 -0.594840
v -0.531707 -0.531707 -0.277253
v -0.754296 -0.754296 0.000000
v -0.773082 -0.773082 0.390822
v -0.607168 -0.312758 0.607168
v -0.482024 0.000000 0.482024
v -0.489184 0.257245 0.489184
v -0.707432 0.707432 0.359933
v -0.645438 0.645438 0.000000
v -0.533089 0.533089 -0.277903
v -0.472566 0.249427 -0.472566
v -0.526079 -0.000000 -0.526079
v -0.572291 -0.296348 -0.572291
v 0.296168 -0.571909 -0.571909
v 0.000000 -0.576932 -0.576932
v -0.216534 -0.402657 -0.402657
v -0.320222 0.623033 -0.623033
v 0.000000 0.798456 -0.798456
v 0.353716 0.694219 -0.694219
v 0.574157 0.297226 -0.574157
v 0.502579 -0.000000 -0.502579
v 0.488972 -0.257145 -0.488972
v 0.695703 -0.695702 0.354414
v 0.866835 -0.866835 0.000000
v 0.702860 -0.702860 -0.357782
v 0.609182 0.609182 -0.313706
v 0.535661 0.535661 0.000000
v 0.483297 0.483297 0.254475
v 0.527983 0.275501 0.527983
v 0.626065 -0.000000 0.626065
v 0.641315 -0.328824 0.641315
v -0.429637 -0.855578 0.855578
v -0.000000 -0.820745 0.820745
v 0.323000 -0.628936 0.628936
v 0.336973 0.658634 0.658634
v -0.000000 0.859998 0.859998
v -0.369531 0.727832 0.727832
v -0.863607 -0.367602 0.367602
v -0.747519 -0.000000 0.320069
v -0.731493 0.317114 0.317114
v -0.879046 -0.370180 -0.000000
v -0.782942 0.000000 0.000000
v -0.712904 0.306881 0.000000
v -0.733296 -0.317803 -0.317803
v -0.603589 0.000000 -0.265233
v -0.539623 0.243790 -0.243790
v -0.304652 -0.304652 -0.698883
v -0.355478 -0.000000 -0.840459
v -0.327366 0.327366 -0.758321
v 0.000000 -0.291178 -0.671687
v 0.000000 0.000000 -0.669852
v -0.000000 0.340475 -0.801080
v 0.223626 -0.223626 -0.486858
v 0.199959 0.000000 -0.432263
v 0.286328 0.286328 -0.650934
v 0.844253 -0.360205 -0.360205
v 0.839267 -0.000000 -0.355024
v 0.712413 0.309822 -0.309822
v 0.890218 -0.374436 0.000000
v 0.699761 0.000000 0.000000
v 0.537903 0.240207 -0.000000
v 0.812078 -0.347909 0.347909
v 0.640061 0.000000 0.279128
v 0.480777 0.221302 0.221302
v 0.358593 -0.358593 0.840034
v 0.417531 -0.000000 1.003330
v 0.369963 0.369963 0.869786
v -0.000000 -0.454847 1.101274
v -0.000000 0.000000 1.202514
v -0.000000 0.465438 1.129074
v -0.383747 -0.383747 0.905857
v -0.345296 0.000000 0.813734
v -0.337610 0.337610 0.785126
v -0.270300 -0.608994 -0.270300
v -0.000000 -0.815715 -0.346051
v 0.399532 -0.947161 -0.399532
v -0.392998 -0.938938 0.000000
v -0.000000 -1.128718 0.000000
v 0.471328 -1.144535 0.000000
v -0.440764 -1.055055 0.440764
v 0.000000 -1.174675 0.482812
v 0.396887 -0.940240 0.396887
v 0.395146 0.935684 -0.395146
v 0.000000 1.086714 -0.449299
v -0.358302 0.839273 -0.358302
v 0.378192 0.900076 0.000000
v 0.000000 1.209797 0.000000
v -0.411515 0.987542 -0.000000
v 0.348681 0.814097 0.348681
v 0.000000 1.099667 0.454234
v -0.434954 1.039852 0.434954
vn -0.9575 0.2799 0.0698
vn -0.9903 0.1367 0.0240
vn -0.8419 0.3101 -0.4416
vn -0.7902 0.2146 -0.5740
vn -0.8103 0.0168 0.5858
vn -0.5872 0.3884 0.7102
vn -0.5494 0.0024 0.8356
vn -0.6888 -0.1291 0.7134
vn -0.9827 0.1311 -0.1309
vn -0.8639 0.0748 -0.4981
vn -0.9455 0.0212 -0.3248
vn -0.9264 0.2618 -0.2705
vn -0.8674 0.3109 -0.3885
vn -0.3071 -0.7641 -0.5673
vn -0.6778 -0.4112 -0.6095
vn -0.9647 -0.2633 -0.0099
vn 0.2851 -0.1957 -0.9383
vn 0.1849 -0.0798 -0.9795
vn 0.6930 0.1100 -0.7125
vn 0.5176 -0.4703 -0.7148
vn -0.1279 -0.9387 -0.3201
vn -0.7056 -0.1163 -0.6990
vn -0.8740 0.2250 -0.4307
vn -0.8700 0.1681 -0.4635
vn -0.3590 0.1713 -0.9175
vn 0.3531 -0.0713 -0.9329
vn 0.2950 -0.1227 -0.9476
vn 0.0181 -0.4492 -0.8933
vn -0.1213 0.0818 -0.9892
vn 0.1263 0.1797 -0.9756
vn 0.3400 0.0245 -0.9401
vn -0.3856 -0.7004 -0.6006
vn 0.9584 0.2540 0.1304
vn 0.8150 0.3928 0.4261
vn 0.8736 0.4548 0.1728
vn 0.7908 0.5762 0.2064
vn 0.4075 -0.0724 -0.9103
vn 0.3685 -0.0178 -0.9295
vn 0.6545 0.0268 -0.7556
vn 0.9544 0.1207 -0.2730
vn 0.9034 0.1628 0.3967
vn 0.9749 -0.0137 0.2223
vn 0.9909 0.1091 -0.0790
vn 0.8952 0.4381 -0.0818
vn 0.9226 0.2873 0.2576
vn 0.6619 -0.3984 0.6349
vn 0.9177 -0.1498 0.3679
vn 0.9301 -0.1844 -0.3177
vn 0.5140 -0.2987 0.8041
vn 0.5102 0.2341 0.8276
vn -0.6240 0.0201 0.7812
vn -0.7364 0.0922 0.6702
vn 0.5295 -0.5869 0.6125
vn 0.7525 -0.1840 0.6323
vn 0.8567 0.3343 0.3928
vn 0.8874 0.3341 0.3177
vn 0.6117 0.4745 0.6330
vn -0.6052 0.2846 0.7435
vn -0.8017 -0.0954 0.5901
vn -0.9094 0.0158 0.4157
vn -0.7988 0.3420 0.4949
vn -0.7117 0.0863 0.6972
vn -0.1964 -0.3508 0.9156
vn 0.6157 -0.5031 0.6065
vn -0.4269 -0.5820 -0.6921
vn -0.1722 -0.8205 -0.5451
vn -0.3343 -0.9252 -0.1796
vn 0.2575 -0.9470 0.1922
vn -0.1051 -0.5490 -0.8292
vn -0.6550 -0.4287 -0.6222
vn -0.1585 -0.5605 -0.8128
vn 0.3715 -0.2889 -0.8823
vn 0.5392 -0.6824 -0.4935
vn 0.5364 -0.6717 0.5110
vn 0.4936 -0.4062 0.7690
vn 0.5543 -0.5052 0.6615
vn -0.0831 -0.8023 0.5911
vn -0.6896 -0.6019 0.4028
vn -0.5406 -0.8225 -0.1767
vn -0.2444 -0.6012 -0.7608
vn 0.5143 0.8540 -0.0781
vn -0.5223 0.7974 -0.3023
vn 0.6378 0.7425 0.2048
vn -0.3168 0.9470 0.0532
vn 0.7110 0.6156 -0.3398
vn 0.3687 0.7081 -0.6022
vn -0.5881 0.6066 -0.5350
vn -0.8373 0.3408 -0.4276
vn -0.7987 0.4547 -0.3941
vn -0.7788 0.6037 -0.1705
vn -0.7131 0.2885 0.6390
vn -0.2907 0.7375 0.6096
vn 0.6426 0.6663 0.3784
vn 0.9072 0.3894 0.1595
vn 0.9119 0.3553 0.2053
vn 0.8566 0.4822 0.1836
vt 0.437500 0.062500
vt 0.500000 0.062500
vt 0.500000 0.125000
vt 0.437500 0.125000
vt 0.562500 0.062500
vt 0.562500 0.125000
vt 0.500000 0.187500
vt 0.437500 0.187500
vt 0.562500 0.187500
vt 0.375000 0.000000
vt 0.437500 0.000000
vt 0.375000 0.062500
vt 0.500000 0.000000
vt 0.562500 0.000000
vt 0.625000 0.000000
vt 0.625000 0.062500
vt 0.625000 0.125000
vt 0.625000 0.187500
vt 0.625000 0.250000
vt 0.562500 0.250000
vt 0.500000 0.250000
vt 0.437500 0.250000
vt 0.375000 0.187500
vt 0.375000 0.250000
vt 0.375000 0.125000
vt 0.437500 0.312500
vt 0.500000 0.312500
vt 0.500000 0.375000
vt 0.437500 0.375000
vt 0.562500 0.312500
vt 0.562500 0.375000
vt 0.500000 0.437500
vt 0.437500 0.437500
vt 0.562500 0.437500
vt 0.375000 0.312500
vt 0.625000 0.312500
vt 0.625000 0.375000
vt 0.625000 0.437500
vt 0.625000 0.500000
vt 0.562500 0.500000
vt 0.500000 0.500000
vt 0.437500 0.500000
vt 0.375000 0.437500
vt 0.375000 0.500000
vt 0.375000 0.375000
vt 0.437500 0.562500
vt 0.500000 0.562500
vt 0.500000 0.625000
vt 0.437500 0.625000
vt 0.562500 0.562500
vt 0.562500 0.625000
vt 0.500000 0.687500
vt 0.437500 0.687500
vt 0.562500 0.687500
vt 0.375000 0.562500
vt 0.625000 0.562500
vt 0.625000 0.625000
vt 0.625000 0.687500
vt 0.625000 0.750000
vt 0.562500 0.750000
vt 0.500000 0.750000
vt 0.437500 0.750000
vt 0.375000 0.687500
vt 0.375000 0.750000
vt 0.375000 0.625000
vt 0.437500 0.812500
vt 0.500000 0.812500
vt 0.500000 0.875000
vt 0.437500 0.875000
vt 0.562500 0.812500
vt 0.562500 0.875000
vt 0.500000 0.937500
vt 0.437500 0.937500
vt 0.562500 0.937500
vt 0.375000 0.812500
vt 0.625000 0.812500
vt 0.625000 0.875000
vt 0.625000 0.937500
vt 0.625000 1.000000
vt 0.562500 1.000000
vt 0.500000 1.000000
vt 0.437500 1.000000
vt 0.375000 0.937500
vt 0.375000 1.000000
vt 0.375000 0.875000
vt 0.187500 0.562500
vt 0.250000 0.562500
vt 0.250000 0.625000
vt 0.187500 0.625000
vt 0.312500 0.562500
vt 0.312500 0.625000
vt 0.250000 0.687500
vt 0.187500 0.687500
vt 0.312500 0.687500
vt 0.125000 0.500000
vt 0.187500 0.500000
vt 0.125000 0.562500
vt 0.250000 0.500000
vt 0.312500 0.500000
vt 0.312500 0.750000
vt 0.250000 0.750000
vt 0.187500 0.750000
vt 0.125000 0.687500
vt 0.125000 0.750000
vt 0.125000 0.625000
vt 0.687500 0.562500
vt 0.750000 0.562500
vt 0.750000 0.625000
vt 0.687500 0.625000
vt 0.812500 0.562500
vt 0.812500 0.625000
vt 0.750000 0.687500
vt 0.687500 0.687500
vt 0.812500 0.687500
vt 0.687500 0.500000
vt 0.750000 0.500000
vt 0.812500 0.500000
vt 0.875000 0.500000
vt 0.875000 0.562500
vt 0.875000 0.625000
vt 0.875000 0.687500
vt 0.875000 0.750000
vt 0.812500 0.750000
vt 0.750000 0.750000
vt 0.687500 0.750000
s 0
f 45/1/1 46/2/1 49/3/1 48/4/1
f 46/2/2 47/5/2 50/6/2 49/3/2
f 48/4/3 49/3/3 52/7/3 51/8/3
f 49/3/4 50/6/4 53/9/4 52/7/4
f 1/10/5 12/11/5 45/1/5 11/12/5
f 12/11/6 13/13/6 46/2/6 45/1/6
f 13/13/7 14/14/7 47/5/7 46/2/7
f 14/14/8 2/15/8 15/16/8 47/5/8
f 47/5/9 15/16/9 16/17/9 50/6/9
f 50/6/10 16/17/10 17/18/10 53/9/10
f 53/9/11 17/18/11 4/19/11 18/20/11
f 52/7/12 53/9/12 18/20/12 19/21/12
f 51/8/13 52/7/13 19/21/13 20/22/13
f 9/23/14 51/8/14 20/22/14 3/24/14
f 10/25/15 48/4/15 51/8/15 9/23/15
f 11/12/16 45/1/16 48/4/16 10/25/16
f 54/26/17 55/27/17 58/28/17 57/29/17
f 55/27/18 56/30/18 59/31/18 58/28/18
f 57/29/19 58/28/19 61/32/19 60/33/19
f 58/28/20 59/31/20 62/34/20 61/32/20
f 3/24/21 20/22/21 54/26/21 23/35/21
f 20/22/22 19/21/22 55/27/22 54/26/22
f 19/21/23 18/20/23 56/30/23 55/27/23
f 18/20/24 4/19/24 24/36/24 56/30/24
f 56/30/25 24/36/25 25/37/25 59/31/25
f 59/31/26 25/37/26 26/38/26 62/34/26
f 62/34/27 26/38/27 8/39/27 27/40/27
f 61/32/28 62/34/28 27/40/28 28/41/28
f 60/33/29 61/32/29 28/41/29 29/42/29
f 21/43/30 60/33/30 29/42/30 7/44/30
f 22/45/31 57/29/31 60/33/31 21/43/31
f 23/35/32 54/26/32 57/29/32 22/45/32
f 63/46/33 64/47/33 67/48/33 66/49/33
f 64/47/34 65/50/34 68/51/34 67/48/34
f 66/49/35 67/48/35 70/52/35 69/53/35
f 67/48/36 68/51/36 71/54/36 70/52/36
f 7/44/37 29/42/37 63/46/37 32/55/37
f 29/42/38 28/41/38 64/47/38 63/46/38
f 28/41/39 27/40/39 65/50/39 64/47/39
f 27/40/40 8/39/40 33/56/40 65/50/40
f 65/50/41 33/56/41 34/57/41 68/51/41
f 68/51/42 34/57/42 35/58/42 71/54/42
f 71/54/43 35/58/43 6/59/43 36/60/43
f 70/52/44 71/54/44 36/60/44 37/61/44
f 69/53/45 70/52/45 37/61/45 38/62/45
f 30/63/46 69/53/46 38/62/46 5/64/46
f 31/65/47 66/49/47 69/53/47 30/63/47
f 32/55/48 63/46/48 66/49/48 31/65/48
f 72/66/49 73/67/49 76/68/49 75/69/49
f 73/67/50 74/70/50 77/71/50 76/68/50
f 75/69/51 76/68/51 79/72/51 78/73/51
f 76/68/52 77/71/52 80/74/52 79/72/52
f 5/64/53 38/62/53 72/66/53 41/75/53
f 38/62/54 37/61/54 73/67/54 72/66/54
f 37/61/55 36/60/55 74/70/55 73/67/55
f 36/60/56 6/59/56 42/76/56 74/70/56
f 74/70/57 42/76/57 43/77/57 77/71/57
f 77/71/58 43/77/58 44/78/58 80/74/58
f 80/74/59 44/78/59 2/79/59 14/80/59
f 79/72/60 80/74/60 14/80/60 13/81/60
f 78/73/61 79/72/61 13/81/61 12/82/61
f 39/83/62 78/73/62 12/82/62 1/84/62
f 40/85/63 75/69/63 78/73/63 39/83/63
f 41/75/64 72/66/64 75/69/64 40/85/64
f 81/86/65 82/87/65 85/88/65 84/89/65
f 82/87/66 83/90/66 86/91/66 85/88/66
f 84/89/67 85/88/67 88/92/67 87/93/67
f 85/88/68 86/91/68 89/94/68 88/92/68
f 3/95/69 23/96/69 81/86/69 9/97/69
f 23/96/70 22/98/70 82/87/70 81/86/70
f 22/98/71 21/99/71 83/90/71 82/87/71
f 21/99/72 7/44/72 32/55/72 83/90/72
f 83/90/73 32/55/73 31/65/73 86/91/73
f 86/91/74 31/65/74 30/63/74 89/94/74
f 89/94/75 30/63/75 5/64/75 41/100/75
f 88/92/76 89/94/76 41/100/76 40/101/76
f 87/93/77 88/92/77 40/101/77 39/102/77
f 11/103/78 87/93/78 39/102/78 1/104/78
f 10/105/79 84/89/79 87/93/79 11/103/79
f 9/97/80 81/86/80 84/89/80 10/105/80
f 90/106/81 91/107/81 94/108/81 93/109/81
f 91/107/82 92/110/82 95/111/82 94/108/82
f 93/109/83 94/108/83 97/112/83 96/113/83
f 94/108/84 95/111/84 98/114/84 97/112/84
f 8/39/85 26/115/85 90/106/85 33/56/85
f 26/115/86 25/116/86 91/107/86 90/106/86
f 25/116/87 24/117/87 92/110/87 91/107/87
f 24/117/88 4/118/88 17/119/88 92/110/88
f 92/110/89 17/119/89 16/120/89 95/111/89
f 95/111/90 16/120/90 15/121/90 98/114/90
f 98/114/91 15/121/91 2/122/91 44/123/91
f 97/112/92 98/114/92 44/123/92 43/124/92
f 96/113/93 97/112/93 43/124/93 42/125/93
f 35/58/94 96/113/94 42/125/94 6/59/94
f 34/57/95 93/109/95 96/113/95 35/58/95
f 33/56/96 90/106/96 93/109/96 34/57/96
