# Blender 5.0.1
# www.blender.org
mtllib Asteroid_2.mtl
o Cube
v 0.259661 -0.289489 0.440248
v 0.268161 0.325057 0.501872
v 0.253446 -0.310848 -0.606276
v 0.266642 0.336701 -0.664786
v 0.306863 -0.294255 0.423934
v 0.315994 0.325057 0.501872
v 0.297597 -0.314302 -0.584794
v 0.314475 0.336701 -0.648996
v 0.467025 -0.321210 0.423934
v 0.494492 0.331638 0.501872
v 0.467025 -0.318619 -0.573569
v 0.498036 0.336701 -0.648996
v 0.382311 -0.316893 -0.577887
v 0.387639 -0.332160 0.433043
v 0.406153 0.330626 0.511741
v 0.406255 0.336701 -0.648996
v 0.557106 -0.290184 0.402839
v 0.676199 0.288340 0.435449
v 0.547740 -0.288158 -0.551611
v 0.681762 0.290168 -0.580722
v 0.790815 -0.232720 0.431275
v 0.805426 0.237115 0.341906
v 0.786642 -0.233554 -0.526610
v 0.805426 0.237115 -0.452535
v 0.879847 -0.206533 0.318599
v 0.878846 0.201120 0.248456
v 0.839485 -0.205363 -0.472951
v 0.878846 0.201120 -0.408032
v 0.259343 -0.346839 -0.158590
v 0.266642 0.359696 -0.164790
v 0.301809 -0.356947 -0.150262
v 0.314475 0.359696 -0.155767
v 0.467025 -0.335888 -0.150262
v 0.407947 0.359260 -0.151537
v 0.400719 -0.352735 -0.146358
v 0.549006 -0.308409 -0.142561
v 0.684637 0.303107 -0.157579
v 0.791322 -0.249933 -0.116088
v 0.791322 0.249933 -0.116088
v 0.839532 -0.228994 -0.129482
v 0.891250 0.206533 -0.143851
v 0.971161 -0.056389 0.126722
v 0.958377 0.077680 0.089319
v 0.975739 -0.057697 0.000363
v 0.975739 0.057697 0.000363
v 0.913364 -0.082535 -0.431940
v 0.916977 0.094703 -0.374019
v 0.925823 -0.078223 -0.303458
v 0.925823 0.078223 -0.303458
v 0.184166 -0.286066 0.455104
v 0.187157 0.329258 0.513252
v 0.178679 -0.304666 -0.646376
v 0.185638 0.342163 -0.703554
v 0.185418 -0.361322 -0.154841
v 0.185638 0.365158 -0.165824
v -0.009435 -0.293751 0.487613
v -0.012172 0.309665 0.558930
v -0.009331 -0.302748 -0.615472
v -0.018054 0.327925 -0.675684
v 0.000777 -0.342950 -0.157473
v -0.199677 -0.283232 0.493598
v -0.219727 0.313544 0.558930
v -0.195154 -0.302748 -0.582680
v -0.219378 0.327925 -0.640156
v -0.188416 -0.347162 -0.157473
v -0.219378 0.350920 -0.163579
v -0.341766 -0.295959 0.486357
v -0.373331 0.316938 0.558930
v -0.337255 -0.314836 -0.516286
v -0.373331 0.327925 -0.573838
v -0.336413 -0.346319 -0.157473
v -0.373331 0.350144 -0.163579
v -0.484752 -0.292775 0.450410
v -0.515614 0.314862 0.518665
v -0.477169 -0.314836 -0.433212
v -0.524916 0.327925 -0.483834
v -0.478854 -0.352216 -0.157473
v -0.524916 0.350920 -0.163579
v -0.540568 -0.298431 0.412650
v -0.591573 0.317182 0.442873
v -0.540568 -0.314836 -0.361069
v -0.593603 0.327925 -0.405673
v -0.540568 -0.327788 -0.157473
v -0.593603 0.350920 -0.163579
v -0.599595 -0.252668 0.340277
v -0.652084 0.313970 0.394399
v -0.602632 -0.278106 -0.291390
v -0.657553 0.327925 -0.324804
v -0.599595 -0.295646 -0.142578
v -0.657553 0.327925 -0.163579
v -0.779538 -0.148202 0.214431
v -0.785875 0.159414 0.214431
v -0.778281 -0.141947 -0.225255
v -0.785875 0.159414 -0.225255
v -0.785875 -0.159414 -0.157266
v -0.785875 0.159414 -0.157266
v -0.818838 -0.115998 0.115724
v -0.830537 0.132572 0.115724
v -0.831297 -0.108270 -0.203952
v -0.830537 0.132572 -0.203952
v -0.830537 -0.132572 -0.098253
v -0.830537 0.132572 -0.098253
v -0.914459 -0.058085 0.056549
v -0.914459 0.058085 0.056549
v -0.918858 -0.058085 -0.110349
v -0.918858 0.058085 -0.110349
v -0.946133 -0.058085 -0.047761
v -0.946133 0.058085 -0.047761
v 0.316383 0.000000 0.589129
v 0.316383 0.000000 -0.752561
v 0.371393 0.000000 -0.734402
v 0.371393 0.000000 0.589129
v 0.582492 0.000000 -0.734402
v 0.582492 0.000000 0.589129
v 0.481482 0.000000 0.600478
v 0.476942 0.000000 -0.734402
v 0.684637 0.000000 -0.667238
v 0.684637 0.000000 0.521965
v 0.791322 0.000000 -0.526610
v 0.791322 0.000000 0.431275
v 0.879847 0.000000 -0.472951
v 0.879847 0.000000 0.318599
v 0.891250 0.000000 -0.143851
v 0.971161 -0.001635 0.126722
v 0.975739 0.000000 0.000363
v 0.916239 -0.001438 -0.431940
v 0.925823 0.000000 -0.303458
v 0.223226 0.000000 0.602216
v 0.223226 0.000000 -0.797145
v -0.011026 0.000000 0.654747
v -0.011026 0.000000 -0.765094
v -0.242554 0.000000 0.654747
v -0.242554 0.000000 -0.724236
v -0.419605 0.000000 0.654747
v -0.419605 0.000000 -0.647968
v -0.593932 0.000000 0.608442
v -0.593932 0.000000 -0.544461
v -0.672924 0.000000 0.521278
v -0.672924 0.000000 -0.454574
v -0.746468 0.000000 0.465532
v -0.746468 0.000000 -0.361572
v -0.785875 0.000000 0.214431
v -0.785875 0.000000 -0.225255
v -0.830537 0.000000 0.115724
v -0.830537 0.000000 -0.203952
v -0.914459 0.000000 0.056549
v -0.918858 0.000000 -0.110349
v -0.946133 0.000000 -0.047761
v 0.266642 0.342785 0.237655
v 0.266642 0.353374 -0.045605
v 0.312954 0.346408 0.192325
v 0.314475 0.346553 0.188286
v 0.314475 0.352852 0.011697
v 0.537586 0.347172 -0.030459
v 0.530687 0.348505 -0.029550
v 0.498036 0.354967 -0.032471
v 0.579436 0.334764 -0.035972
v 0.435803 0.356252 -0.081311
v 0.439796 0.355287 -0.127734
v 0.446127 0.355104 -0.153330
v 0.470866 0.355393 -0.034902
v 0.343910 0.350224 0.110151
v 0.323357 0.352826 0.022337
v 0.456585 0.353804 -0.195611
v 0.475265 0.354537 -0.243509
v 0.498036 0.354389 -0.261611
v 0.516198 0.348574 -0.276050
v 0.575356 0.330020 -0.290089
v 0.068991 0.348278 -0.107707
v 0.162117 0.342426 0.302413
v 0.185638 0.344523 0.289997
v 0.185638 0.357934 -0.089375
v 0.172514 0.357117 -0.095810
v -0.018054 0.330152 0.298574
v -0.002630 0.330849 0.304103
v 0.079844 0.335847 0.318240
v -0.018054 0.342580 -0.093802
v 0.260911 0.353978 -0.052469
v 0.245386 0.343073 0.258459
v -0.078642 0.338707 -0.416764
v -0.018254 0.350846 -0.163597
v -0.018054 0.336882 -0.426202
v -0.161990 0.345769 -0.270342
v -0.146194 0.348021 -0.223665
v -0.160613 0.342494 -0.338217
v -0.032871 0.350913 -0.163579
v -0.092032 0.350272 -0.177012
v -0.132236 0.340264 -0.384426
v 0.147788 0.354311 -0.352440
v 0.117330 0.350767 -0.381353
v 0.174707 0.359679 -0.274591
v 0.160837 0.356570 -0.322730
v 0.025184 0.353472 -0.171615
v -0.006428 0.337762 -0.428013
v 0.068512 0.344423 -0.401897
v 0.157633 0.361292 -0.208019
v 0.099214 0.358226 -0.184711
v -0.292529 0.348326 -0.086662
v -0.298775 0.346857 -0.046045
v -0.297440 0.349267 -0.113667
v -0.319332 0.345466 -0.019314
v -0.325160 0.349797 -0.141582
v -0.237019 0.341513 0.131992
v -0.219378 0.335636 0.288372
v -0.219378 0.340614 0.160232
v -0.223044 0.329289 0.521467
v -0.219378 0.344364 0.042405
v -0.372520 0.349296 -0.156729
v -0.373331 0.342293 -0.005317
v -0.373331 0.331487 0.195903
v -0.351589 0.343651 -0.004989
v -0.308654 0.328746 0.231235
v -0.309563 0.328974 0.529263
v -0.373331 0.327612 0.516616
v -0.148422 0.346111 -0.040249
v -0.097674 0.334070 0.270031
v -0.041961 0.343583 -0.089983
v -0.026414 0.350824 -0.162113
v -0.218684 0.344476 0.038880
v -0.185931 0.338836 0.213774
v -0.121218 0.331691 0.441967
v -0.148971 0.334511 0.348702
v -0.154316 0.329760 0.501816
v -0.525245 0.328918 0.459147
v -0.593932 0.329448 0.409590
v -0.498298 0.348682 -0.095575
v -0.487549 0.346648 -0.049893
v -0.494014 0.347500 -0.068147
v -0.440539 0.342663 -0.018886
v -0.448654 0.349399 -0.146590
v -0.470272 0.345139 -0.031173
v -0.482306 0.349840 -0.132082
v -0.406096 0.348690 -0.154430
v -0.393571 0.341730 -0.005622
v -0.409318 0.335151 0.183396
v -0.496197 0.327781 0.479896
v -0.503768 0.340093 0.157116
v -0.417588 0.326228 0.505033
v -0.664133 0.323530 0.334788
v -0.661033 0.327925 0.198547
v -0.621187 0.330035 0.156573
v -0.630481 0.327925 0.382661
v 0.068991 0.303308 -0.107707
v -0.041961 0.305409 -0.089983
v -0.148422 0.309807 -0.040249
v -0.218684 0.310863 0.038880
v -0.237019 0.310863 0.131992
v -0.185931 0.310758 0.213774
v -0.097674 0.307644 0.270031
v -0.002630 0.304464 0.304103
v 0.079844 0.304646 0.318240
v 0.162117 0.305173 0.302413
v 0.245386 0.307079 0.258459
v 0.312954 0.309546 0.192325
v 0.343910 0.310462 0.110151
v 0.323357 0.309973 0.022337
v 0.260911 0.308194 -0.052469
v 0.172514 0.305269 -0.095810
v 0.077340 0.292958 0.255524
v -0.031720 0.289716 0.193804
v -0.141159 0.304093 0.122064
v 0.177026 0.288611 0.182695
v 0.071527 0.271087 0.101161
v -0.046495 0.289891 0.026660
v 0.269901 0.301501 0.100920
v 0.182392 0.290146 0.014355
v 0.071749 0.292162 -0.049438
v -0.092032 0.320209 -0.177012
v -0.026414 0.320105 -0.162113
v 0.025184 0.319982 -0.171615
v 0.099214 0.320201 -0.184711
v 0.157633 0.320209 -0.208019
v 0.174707 0.320209 -0.274591
v 0.160837 0.320209 -0.322730
v 0.147788 0.320209 -0.352440
v 0.117330 0.320209 -0.381353
v 0.068512 0.317812 -0.401897
v -0.006428 0.317810 -0.428013
v -0.078642 0.319732 -0.416764
v -0.132236 0.320209 -0.384426
v -0.160613 0.320209 -0.338217
v -0.161990 0.320209 -0.270342
v -0.146194 0.320209 -0.223665
v 0.086278 0.315927 -0.363809
v 0.094627 0.315410 -0.318681
v 0.106981 0.319723 -0.260783
v -0.005882 0.306430 -0.381613
v -0.002436 0.295289 -0.318945
v 0.011583 0.307291 -0.254122
v -0.093670 0.316481 -0.364942
v -0.089826 0.314070 -0.291859
v -0.070186 0.317992 -0.231395
v -0.325160 0.333257 -0.141582
v -0.371709 0.332213 -0.156785
v -0.406096 0.331617 -0.154430
v -0.448654 0.332646 -0.146590
v -0.482306 0.333656 -0.132082
v -0.498298 0.333667 -0.095575
v -0.494014 0.333326 -0.068147
v -0.487549 0.333042 -0.049893
v -0.470272 0.332094 -0.031173
v -0.440539 0.329951 -0.018886
v -0.393571 0.329439 -0.005622
v -0.351589 0.331432 -0.004989
v -0.319332 0.332833 -0.019314
v -0.298775 0.333398 -0.046045
v -0.292529 0.333584 -0.086662
v -0.297440 0.333675 -0.113667
v -0.450595 0.328681 -0.043617
v -0.454275 0.328080 -0.071507
v -0.458282 0.329952 -0.104684
v -0.393794 0.324627 -0.035076
v -0.395151 0.321279 -0.073003
v -0.401197 0.324529 -0.109807
v -0.340904 0.329113 -0.036500
v -0.340728 0.327388 -0.081042
v -0.349225 0.328767 -0.116530
v 0.470866 0.319863 -0.034902
v 0.530687 0.319462 -0.029550
v 0.579436 0.319918 -0.035972
v 0.575356 0.320209 -0.290089
v 0.516198 0.320135 -0.276050
v 0.475265 0.318578 -0.243509
v 0.456585 0.314951 -0.195611
v 0.439796 0.315392 -0.127734
v 0.435803 0.318663 -0.081311
v 0.628244 0.320209 -0.060002
v 0.628244 0.318333 -0.157032
v 0.609055 0.320209 -0.281663
v 0.468336 0.310495 -0.132202
v 0.522884 0.304612 -0.146540
v 0.583395 0.311221 -0.150963
v -0.312674 0.300860 0.240372
v -0.411865 0.305929 0.192734
v -0.506839 0.310863 0.162438
v -0.617298 0.310863 0.162509
v -0.630481 0.310863 0.374775
v -0.559572 0.310716 0.428451
v -0.496525 0.308764 0.472339
v -0.418245 0.307350 0.498462
v -0.314491 0.310863 0.525977
v -0.222885 0.310863 0.516080
v -0.159792 0.310863 0.501269
v -0.132169 0.310863 0.440598
v -0.155268 0.310863 0.351988
v -0.221289 0.309572 0.295708
v -0.670546 0.310863 0.313166
v -0.670546 0.310863 0.224258
v -0.217638 0.310863 0.442850
v -0.329820 0.299291 0.447527
v -0.464514 0.297437 0.428462
v -0.264435 0.300319 0.341893
v -0.389969 0.276077 0.342100
v -0.540834 0.305910 0.341145
v -0.337672 0.291713 0.266108
v -0.458204 0.297189 0.251875
v -0.598378 0.310863 0.256503
vn 0.0780 0.9960 -0.0441
vn 0.3007 0.2819 -0.9111
vn 0.0996 -0.9930 -0.0638
vn -0.0000 0.2593 0.9658
vn -0.1540 -0.9829 0.1013
vn -0.0041 0.9977 0.0680
vn -0.0263 0.9986 0.0459
vn 0.2681 0.9626 0.0393
vn -0.0049 0.9991 0.0425
vn -0.0000 0.2459 -0.9693
vn 0.1276 -0.4821 0.8668
vn -0.1796 -0.4256 0.8869
vn -0.0046 0.9988 0.0484
vn 0.0141 -0.9958 -0.0906
vn 0.2331 -0.9714 -0.0451
vn 0.4479 0.2940 -0.8444
vn 0.4249 -0.5151 0.7444
vn 0.3421 -0.9387 -0.0428
vn 0.4270 0.9041 0.0185
vn 0.4086 0.9125 0.0217
vn 0.7645 0.1729 -0.6210
vn 0.2168 -0.2670 0.9390
vn 0.9030 -0.0000 0.4297
vn 0.5416 0.2394 -0.8058
vn 0.7855 -0.0009 0.6188
vn 0.4528 -0.8902 -0.0501
vn 0.3440 -0.9387 0.0237
vn 0.8527 -0.5205 -0.0439
vn 0.4333 0.9009 -0.0241
vn 0.4184 0.9079 -0.0264
vn 0.3236 -0.9459 0.0255
vn 0.2333 -0.9720 0.0299
vn -0.1887 -0.9796 0.0694
vn 0.0034 0.9989 -0.0459
vn 0.0058 0.9991 -0.0415
vn 0.2688 0.9625 -0.0362
vn 0.0120 0.9989 -0.0463
vn -0.1249 -0.9884 -0.0867
vn 0.1901 -0.9812 0.0321
vn 0.0796 -0.9919 -0.0989
vn 0.9890 0.1171 0.0908
vn 0.8628 -0.0000 -0.5055
vn 0.8569 0.5141 0.0374
vn 0.8135 -0.5809 -0.0266
vn 0.9956 0.0258 -0.0902
vn 0.9494 -0.1468 0.2776
vn 0.9463 0.3196 -0.0495
vn 0.8293 0.2140 -0.5161
vn -0.0721 0.9895 0.1254
vn -0.0740 0.9943 0.0762
vn -0.0203 -0.9949 0.0985
vn 0.0868 -0.9903 0.1087
vn 0.0431 0.9967 0.0689
vn 0.0632 0.9957 0.0676
vn 0.3876 -0.4547 -0.8019
vn 0.1403 0.2743 0.9514
vn -0.0001 0.9990 -0.0451
vn 0.0028 -0.9954 -0.0954
vn -0.1349 -0.4316 -0.8919
vn 0.1997 0.2829 0.9381
vn -0.0617 -0.9931 -0.1002
vn -0.0791 0.9961 -0.0400
vn -0.3526 -0.4396 -0.8261
vn -0.0348 0.9982 0.0493
vn 0.0017 0.9315 0.3638
vn -0.0152 -0.9961 0.0867
vn 0.0176 0.9985 0.0517
vn 0.0632 0.9938 0.0917
vn -0.1562 -0.4383 -0.8851
vn 0.0026 0.2938 0.9559
vn -0.0158 0.9980 -0.0618
vn -0.0110 -0.9941 -0.1079
vn 0.0030 0.2905 0.9569
vn 0.0165 -0.9952 -0.0965
vn -0.0135 0.9986 -0.0509
vn 0.0386 -0.9953 0.0883
vn -0.6687 -0.4556 -0.5876
vn -0.0540 0.9973 0.0488
vn -0.2359 0.9265 0.2933
vn -0.0015 -0.9962 0.0874
vn 0.0329 0.9987 0.0380
vn -0.0870 0.9642 0.2503
vn -0.4579 -0.4423 -0.7712
vn -0.2520 0.3182 0.9139
vn -0.2107 0.9760 -0.0556
vn -0.5290 -0.8458 -0.0686
vn -0.6780 0.3441 0.6496
vn -0.2470 -0.9636 -0.1021
vn -0.0463 0.9956 -0.0814
vn -0.1801 -0.9809 0.0730
vn -0.7502 -0.3628 -0.5529
vn -0.8044 0.5940 0.0135
vn -0.5689 -0.8205 0.0564
vn -0.2276 0.9736 0.0194
vn -0.3652 0.8733 0.3223
vn -0.7256 -0.4753 -0.4975
vn -0.5828 0.3374 0.7392
vn -0.5151 0.8571 -0.0000
vn -0.6316 -0.7478 -0.2047
vn -0.9289 0.2289 0.2911
vn -0.6080 -0.7817 -0.1390
vn -0.7956 0.6058 -0.0000
vn -0.5634 -0.8243 0.0564
vn -0.5763 -0.0000 0.8173
vn -0.7284 0.0033 -0.6852
vn -0.5920 -0.8039 0.0564
vn -0.4030 -0.0110 -0.9151
vn -0.9111 -0.0000 0.4122
vn -0.9167 -0.0000 -0.3995
vn -0.9569 -0.0000 0.2906
vn -0.6141 -0.7617 -0.2067
vn -0.6330 0.7673 -0.1026
vn -0.5310 -0.8394 0.1161
vn -0.5989 0.7986 0.0596
vn -0.9221 -0.0629 0.3819
vn -0.4305 -0.0000 -0.9026
vn -0.7273 -0.0000 -0.6863
vn -0.5584 -0.0375 0.8287
vn -0.8272 -0.4294 0.3624
vn -0.6705 -0.5507 0.4971
vn -0.7549 0.2716 -0.5970
vn -0.8594 0.1925 -0.4736
vn -0.5688 -0.5199 0.6373
vn -0.2184 -0.5254 0.8224
vn -0.4933 0.2574 -0.8309
vn -0.7233 0.2697 -0.6356
vn -0.0000 -0.4945 0.8692
vn -0.1680 0.2560 -0.9520
vn -0.3826 0.2547 -0.8881
vn 0.1795 -0.4777 0.8600
vn -0.1392 0.2522 -0.9576
vn 0.1349 -0.4708 0.8719
vn 0.4211 0.2843 -0.8613
vn 0.6623 -0.1000 -0.7425
vn 0.9773 -0.0000 0.2117
vn 0.9962 -0.0180 -0.0851
vn 0.8174 -0.1750 -0.5489
vn 0.9993 -0.0000 0.0362
vn 0.7879 0.1897 0.5859
vn 0.6114 -0.0627 -0.7889
vn 0.9078 0.1883 0.3747
vn 0.6293 0.2406 0.7390
vn 0.4503 -0.3079 -0.8381
vn 0.4432 0.3052 0.8429
vn 0.4430 -0.5177 -0.7319
vn 0.0265 -0.4419 -0.8966
vn -0.1089 0.2374 0.9653
vn 0.1054 0.2796 0.9543
vn 0.0162 -0.4510 -0.8924
vn 0.1152 -0.4891 0.8646
vn 0.3154 -0.4615 -0.8292
vn -0.6995 -0.0000 -0.7146
vn 0.9812 -0.0000 0.1932
vn -0.9358 -0.0000 -0.3525
vn 0.8481 -0.0000 -0.5298
vn -0.9737 -0.0000 0.2279
vn 0.5375 -0.0000 -0.8433
vn -0.7677 -0.0000 0.6408
vn 0.3375 -0.0000 -0.9413
vn -0.4402 -0.0000 0.8979
vn 0.1689 -0.0000 -0.9856
vn 0.1577 -0.0000 0.9875
vn -0.1142 -0.0000 0.9935
vn -0.1889 -0.0000 -0.9820
vn 0.4232 -0.0000 0.9060
vn -0.4668 -0.0000 -0.8844
vn 0.7478 -0.0000 0.6640
vn -0.0061 0.9831 -0.1830
vn -0.0963 0.2418 -0.9655
vn 0.6683 0.4278 0.6085
vn -0.2491 0.1866 -0.9503
vn -0.8338 0.3648 -0.4143
vn 0.7667 0.3614 -0.5307
vn -0.8974 0.3591 0.2565
vn 0.5679 0.2883 -0.7710
vn -0.6275 0.2604 0.7338
vn 0.5573 0.2833 -0.7805
vn -0.3778 0.3923 0.8387
vn -0.5226 0.3010 0.7977
vn 0.2991 0.3265 -0.8966
vn -0.2641 0.2584 0.9292
vn 0.2221 0.2581 -0.9402
vn -0.0120 0.2263 0.9740
vn -0.0000 1.0000 -0.0000
vn 0.0151 -0.0000 -0.9999
vn 0.3959 -0.0000 0.9183
vn -0.4059 -0.0000 -0.9139
vn 0.9160 -0.0000 0.4012
vn -0.7927 -0.0000 -0.6096
vn 0.9880 -0.0000 -0.1543
vn -0.9884 -0.0000 -0.1520
vn 0.9426 -0.0000 -0.3339
vn -0.9839 -0.0000 0.1789
vn 0.7349 -0.0000 -0.6782
vn -0.3074 -0.0090 0.9515
vn -0.7096 -0.0000 0.7046
vn 0.3819 -0.0000 -0.9242
vn 0.0683 -0.0000 0.9977
vn 0.2718 -0.0000 -0.9624
vn 0.1812 -0.0000 0.9835
vn 0.1195 0.9894 -0.0825
vn 0.1539 -0.0000 0.9881
vn -0.3706 -0.0000 -0.9288
vn 0.5166 -0.0000 0.8562
vn -0.9687 -0.0000 -0.2484
vn 0.8522 -0.0000 0.5233
vn -0.9609 -0.0000 0.2769
vn 0.9998 -0.0000 0.0203
vn -0.9156 -0.0000 0.4021
vn 0.9472 -0.0000 -0.3206
vn -0.6885 -0.0000 0.7253
vn 0.2214 -0.0000 -0.9752
vn 0.6526 -0.0000 -0.7577
vn -0.3879 -0.0000 0.9217
vn -0.1811 0.0003 -0.9835
vn -0.3291 -0.0000 0.9443
vn -0.1742 -0.0000 -0.9847
vn -0.0860 0.9922 0.0899
vn 0.2309 -0.0000 0.9730
vn 0.6223 -0.0000 0.7828
vn 0.9317 -0.0000 0.3634
vn 0.9707 -0.0000 0.2401
vn 0.9963 -0.0000 0.0857
vn 0.0891 -0.0000 -0.9960
vn 0.7979 -0.0000 -0.6028
vn -0.1306 -0.0000 -0.9914
vn -0.2426 -0.0000 0.9701
vn -0.4417 -0.0000 -0.8972
vn 0.0865 0.9948 0.0539
vn -0.0803 0.9860 -0.1464
vn -0.1479 0.9873 -0.0580
vn -0.1196 0.9928 -0.0048
vn 0.0703 0.9861 -0.1504
vn -0.0022 0.9901 -0.1402
vn -0.1515 0.9884 0.0042
vn -0.1420 0.9885 0.0515
vn 0.1272 0.9900 -0.0611
vn 0.1521 0.9883 -0.0124
vn 0.0064 0.9903 0.1386
vn -0.0813 0.9864 0.1427
vn 0.0692 0.9975 -0.0124
vn 0.1229 0.9920 0.0294
vn 0.0847 0.9873 0.1346
vn 0.0057 0.9822 0.1876
vn -0.1019 0.9791 0.1758
vn 0.1016 0.9817 0.1612
vn 0.0650 0.9960 0.0618
vn -0.0725 0.9970 0.0276
vn -0.1650 0.9785 0.1239
vn 0.1831 0.9792 0.0879
vn 0.0762 0.9970 0.0157
vn -0.0434 0.9986 -0.0299
vn -0.1691 0.9811 -0.0941
vn 0.1242 0.9796 -0.1579
vn 0.0460 0.9976 -0.0517
vn -0.0052 1.0000 -0.0043
vn -0.0834 0.9933 -0.0794
vn 0.0523 0.9918 -0.1165
vn 0.0181 0.9993 -0.0335
vn 0.0697 0.9898 -0.1243
vn -0.0686 0.9895 -0.1275
vn -0.1031 0.9910 -0.0852
vn 0.1255 0.9915 -0.0344
vn 0.0971 0.9930 -0.0670
vn -0.1033 0.9929 -0.0596
vn -0.1197 0.9924 -0.0270
vn 0.1148 0.9932 0.0205
vn 0.1077 0.9925 0.0572
vn -0.0854 0.9931 0.0808
vn -0.1090 0.9929 0.0467
vn 0.0835 0.9946 0.0613
vn 0.0792 0.9901 0.1163
vn -0.0411 0.9898 0.1361
vn -0.0788 0.9917 0.1021
vn 0.1142 0.9897 -0.0859
vn 0.0926 0.9909 0.0972
vn 0.0455 0.9924 -0.1144
vn -0.0412 0.9948 0.0930
vn -0.0740 0.9923 -0.0995
vn -0.0916 0.9945 0.0504
vn -0.0951 0.9941 -0.0514
vn -0.0526 0.9980 -0.0361
vn -0.1368 0.9881 0.0702
vn -0.1340 0.9676 0.2138
vn -0.0617 0.9955 -0.0719
vn -0.1501 0.9851 -0.0833
vn -0.0835 0.9858 0.1454
vn 0.0151 0.9874 0.1577
vn 0.0062 0.9893 -0.1458
vn 0.1069 0.9828 -0.1508
vn 0.1482 0.9881 0.0407
vn 0.0554 0.9970 0.0539
vn 0.1091 0.9788 -0.1731
vn 0.0918 0.9952 -0.0351
vn 0.0360 0.9993 0.0098
vt 0.875000 0.607143
vt 0.875000 0.500000
vt 0.875000 0.607143
vt 0.500000 0.250000
vt 0.625000 0.250000
vt 0.625000 0.500000
vt 0.500000 0.500000
vt 0.375000 0.607143
vt 0.375000 0.500000
vt 0.375000 0.607143
vt 0.500000 0.750000
vt 0.625000 0.750000
vt 0.625000 1.000000
vt 0.500000 1.000000
vt 0.125000 0.607143
vt 0.375000 0.607143
vt 0.375000 0.750000
vt 0.148261 0.754600
vt 0.875000 0.693382
vt 0.875000 0.750000
vt 0.625000 0.681881
vt 0.632953 0.682787
vt 0.625000 0.643521
vt 0.625000 0.607143
vt 0.875000 0.632683
vt 0.625000 0.633926
vt 0.625000 0.607143
vt 0.625000 0.629730
vt 0.625000 0.634590
vt 0.625000 0.635129
vt 0.625000 0.635208
vt 0.625000 0.612612
vt 0.625000 0.633052
vt 0.625000 0.622593
vt 0.625000 0.645714
vt 0.625000 0.664470
vt 0.625000 0.584151
vt 0.625000 0.598103
vt 0.625000 0.587897
vt 0.625000 0.580567
vt 0.625000 0.576115
vt 0.625000 0.577410
vt 0.125000 0.500000
vt 0.500000 0.607143
vt 0.875000 0.623226
vt 0.875000 0.620939
vt 0.875000 0.618712
vt 0.875000 0.621749
vt 0.875000 0.698521
vt 0.875000 0.703034
vt 0.875000 0.704925
vt 0.875000 0.705551
vt 0.875000 0.700083
vt 0.127447 0.755767
vt 0.125022 0.752858
vt 0.875000 0.631194
vt 0.875000 0.697463
vt 0.375000 0.250000
vt 0.375000 0.250000
vt 0.875000 0.552197
vt 0.875000 0.604237
vt 0.875000 0.594020
vt 0.875000 0.583667
vt 0.875000 0.568703
vt 0.875000 0.558992
vt 0.875000 0.552991
vt 0.875000 0.551995
vt 0.875000 0.558487
vt 0.875000 0.563316
vt 0.875000 0.569512
vt 0.875000 0.575613
vt 0.875000 0.585371
vt 0.875000 0.598570
vt 0.875000 0.603096
vt 0.875000 0.605593
vt 0.875000 0.647871
vt 0.875000 0.608486
vt 0.875000 0.611492
vt 0.875000 0.617012
vt 0.875000 0.622351
vt 0.875000 0.630382
vt 0.875000 0.635668
vt 0.875000 0.638500
vt 0.875000 0.638435
vt 0.875000 0.678221
vt 0.875000 0.687014
vt 0.875000 0.696504
vt 0.875000 0.671168
vt 0.875000 0.665584
vt 0.875000 0.740399
vt 0.875000 0.741527
vt 0.875000 0.743484
vt 0.125000 0.754219
vt 0.875000 0.647174
vt 0.875000 0.631528
vt 0.875000 0.621695
vt 0.875000 0.607433
vt 0.875000 0.692878
vt 0.875000 0.681755
vt 0.875000 0.709083
vt 0.875000 0.726603
vt 0.875000 0.738599
vt 0.125000 0.752616
vt 0.875000 0.674951
vt 0.875000 0.686534
vt 0.875000 0.740535
vt 0.875000 0.736161
vt 0.125000 0.753571
vt 0.875000 0.608508
vt 0.875000 0.678648
vt 0.875000 0.638640
vt 0.875000 0.636507
vt 0.875000 0.634290
vt 0.875000 0.630587
vt 0.875000 0.626860
vt 0.875000 0.621199
vt 0.875000 0.613596
vt 0.875000 0.610601
vt 0.875000 0.608997
vt 0.875000 0.740247
vt 0.875000 0.738933
vt 0.125000 0.750000
vt 0.875000 0.702582
vt 0.875000 0.734318
vt 0.875000 0.733450
vt 0.875000 0.710256
vt 0.875000 0.740308
vt 0.500000 0.142524
vt 0.621506 0.142524
vt 0.500000 0.003661
vt 0.621506 0.003661
vt 0.378494 0.003661
vt 0.378494 0.142524
vt 0.375000 1.000000
vt 0.383118 1.000000
vt 0.381847 1.000000
vt 0.386928 1.000000
vt 0.382728 1.000000
vt 0.390397 1.000000
vt 0.387344 1.000000
vt 0.000000 0.000000
s 0
usemtl Material.001
f 30/1/1 4/2/1 53/2/1 55/3/1
f 110/4/2 4/5/2 8/6/2 111/7/2
f 35/8/3 13/9/3 11/9/3 33/10/3
f 112/11/4 6/12/4 2/13/4 109/14/4
f 29/15/5 31/16/5 5/17/5 1/18/5
f 149/19/6 2/20/6 6/12/6 152/21/6 151/22/6
f 153/23/7 32/24/7 30/1/7 150/25/7
f 156/26/8 10/12/8 18/12/8 37/24/8 328/27/8 327/28/8 157/29/8 154/30/8 155/31/8
f 159/32/9 160/27/9 34/24/9 15/12/9 10/12/9 156/26/9 161/33/9 158/34/9
f 116/7/10 16/6/10 12/6/10 113/7/10
f 115/11/11 14/17/11 9/17/11 114/11/11
f 112/11/12 5/17/12 14/17/12 115/11/12
f 111/7/10 8/6/10 16/6/10 116/7/10
f 152/21/13 6/12/13 15/12/13 34/24/13 32/24/13 153/23/13 163/35/13 162/36/13
f 31/16/14 7/9/14 13/9/14 35/8/14
f 36/16/15 19/9/15 23/9/15 38/8/15
f 113/7/16 12/6/16 20/6/16 117/7/16
f 114/11/17 9/17/17 17/17/17 118/11/17
f 33/10/18 11/9/18 19/9/18 36/16/18
f 39/27/19 22/12/19 26/12/19 41/27/19
f 37/24/20 18/12/20 22/12/20 39/27/20
f 117/7/21 20/6/21 24/6/21 119/7/21
f 118/11/22 17/17/22 21/17/22 120/11/22
f 122/11/23 25/17/23 42/17/23 124/11/23
f 119/7/24 24/6/24 28/6/24 121/7/24
f 120/11/25 21/17/25 25/17/25 122/11/25
f 38/8/26 23/9/26 27/9/26 40/8/26
f 21/17/27 38/8/27 40/8/27 25/17/27
f 40/8/28 27/9/28 46/9/28 48/8/28
f 20/6/29 37/24/29 39/27/29 24/6/29
f 24/6/30 39/27/30 41/27/30 28/6/30
f 9/17/31 33/10/31 36/16/31 17/17/31
f 17/17/32 36/16/32 38/8/32 21/17/32
f 5/17/33 31/16/33 35/8/33 14/17/33
f 8/6/34 32/24/34 34/24/34 16/6/34
f 166/37/35 12/6/35 16/6/35 34/24/35 160/27/35 164/38/35 165/39/35
f 328/27/36 37/24/36 20/6/36 12/6/36 166/37/36 167/40/36 168/41/36 329/42/36
f 8/6/37 4/2/37 30/1/37 32/24/37
f 3/43/38 7/9/38 31/16/38 29/15/38
f 14/17/39 35/8/39 33/10/39 9/17/39
f 3/43/40 29/15/40 54/15/40 52/43/40
f 125/44/41 45/27/41 43/12/41 124/11/41
f 123/44/42 41/27/42 45/27/42 125/44/42
f 41/27/43 26/12/43 43/12/43 45/27/43
f 25/17/44 40/8/44 44/8/44 42/17/44
f 126/7/45 47/6/45 49/27/45 127/44/45
f 123/44/46 40/8/46 48/8/46 127/44/46
f 28/6/47 41/27/47 49/27/47 47/6/47
f 121/7/48 28/6/48 47/6/48 126/7/48
f 172/45/49 55/3/49 181/3/49 177/46/49 169/47/49 173/48/49
f 174/49/50 57/20/50 51/20/50 171/50/50 170/51/50 176/52/50 175/53/50
f 54/15/51 50/54/51 56/55/51 60/15/51
f 29/15/52 1/18/52 50/54/52 54/15/52
f 150/25/53 30/1/53 55/3/53 172/45/53 178/56/53
f 171/50/54 51/20/54 2/20/54 149/19/54 179/57/54
f 110/4/55 3/58/55 52/59/55 129/4/55
f 109/14/56 2/13/56 51/13/56 128/14/56
f 182/60/57 59/2/57 64/2/57 66/3/57 186/3/57 187/61/57 184/62/57 183/63/57 185/64/57 188/65/57 180/66/57
f 58/43/58 60/15/58 65/15/58 63/43/58
f 129/4/59 52/59/59 58/59/59 131/4/59
f 128/14/60 51/13/60 57/13/60 130/14/60
f 52/43/61 54/15/61 60/15/61 58/43/61
f 181/3/62 55/3/62 53/2/62 59/2/62 182/60/62 194/67/62 195/68/62 190/69/62 189/70/62 192/71/62 191/72/62 196/73/62 197/74/62 193/75/62
f 133/4/63 63/59/63 69/59/63 135/4/63
f 207/76/64 66/3/64 72/3/64 208/77/64 202/78/64 200/79/64 198/80/64 199/81/64 201/82/64 211/83/64 209/84/64 210/85/64 212/86/64 204/87/64 205/88/64 203/89/64
f 214/90/65 68/20/65 62/20/65 206/91/65 213/92/65
f 60/15/66 56/55/66 61/93/66 65/15/66
f 186/3/67 66/3/67 207/76/67 219/94/67 215/95/67 217/96/67 177/46/67 181/3/67 218/97/67
f 206/91/68 62/20/68 57/20/68 174/49/68 216/98/68 220/99/68 205/88/68 204/87/68 222/100/68 221/101/68 223/102/68
f 131/4/69 58/59/69 63/59/69 133/4/69
f 130/14/70 57/13/70 62/13/70 132/14/70
f 72/3/71 70/2/71 76/2/71 78/3/71
f 69/43/72 71/15/72 77/15/72 75/43/72
f 132/14/73 62/13/73 68/13/73 134/14/73
f 63/43/74 65/15/74 71/15/74 69/43/74
f 66/3/75 64/2/75 70/2/75 72/3/75
f 65/15/76 61/93/76 67/103/76 71/15/76
f 137/4/77 75/59/77 81/59/77 139/4/77
f 237/104/78 78/3/78 84/3/78 241/105/78
f 225/106/79 80/20/79 74/20/79 224/107/79
f 71/15/80 67/103/80 73/108/80 77/15/80
f 208/109/81 72/3/81 78/3/81 237/104/81 235/110/81 210/85/81 209/84/81 234/111/81 229/112/81 231/113/81 227/114/81 228/115/81 226/116/81 232/117/81 230/118/81 233/119/81
f 224/107/82 74/20/82 68/20/82 214/90/82 238/120/82 236/121/82
f 135/4/83 69/59/83 75/59/83 137/4/83
f 134/14/84 68/13/84 74/13/84 136/14/84
f 84/3/85 82/2/85 88/2/85 90/3/85
f 81/43/86 83/15/86 89/15/86 87/43/86
f 136/14/87 74/13/87 80/13/87 138/14/87
f 75/43/88 77/15/88 83/15/88 81/43/88
f 78/3/89 76/2/89 82/2/89 84/3/89
f 77/15/90 73/108/90 79/122/90 83/15/90
f 141/4/91 87/59/91 93/59/91 143/4/91
f 240/123/92 90/3/92 96/3/92 92/20/92 86/20/92 239/124/92 347/125/92 348/126/92
f 83/15/93 79/122/93 85/122/93 89/15/93
f 241/105/94 84/3/94 90/3/94 240/123/94
f 239/124/95 86/20/95 80/20/95 225/106/95 242/127/95
f 139/4/96 81/59/96 87/59/96 141/4/96
f 138/14/97 80/13/97 86/13/97 140/14/97
f 96/3/98 94/2/98 100/2/98 102/3/98
f 93/43/99 95/15/99 101/15/99 99/43/99
f 140/14/100 86/13/100 92/13/100 142/14/100
f 87/43/101 89/15/101 95/15/101 93/43/101
f 90/3/102 88/2/102 94/2/102 96/3/102
f 89/15/103 85/122/103 91/122/103 95/15/103
f 144/14/104 98/13/104 104/13/104 146/14/104
f 145/4/105 99/59/105 105/59/105 147/4/105
f 95/15/106 91/122/106 97/122/106 101/15/106
f 92/20/98 96/3/98 102/3/98 98/20/98
f 143/4/107 93/59/107 99/59/107 145/4/107
f 142/14/108 92/13/108 98/13/108 144/14/108
f 148/128/109 108/129/109 106/5/109 147/4/109
f 146/130/110 104/131/110 108/129/110 148/128/110
f 99/43/111 101/15/111 107/15/111 105/43/111
f 102/3/112 100/2/112 106/2/112 108/3/112
f 101/15/113 97/122/113 103/122/113 107/15/113
f 98/20/114 102/3/114 108/3/114 104/20/114
f 103/132/110 146/130/110 148/128/110 107/133/110
f 107/133/109 148/128/109 147/4/109 105/59/109
f 91/134/115 142/14/115 144/14/115 97/134/115
f 94/5/116 143/4/116 145/4/116 100/5/116
f 100/5/117 145/4/117 147/4/117 106/5/117
f 97/134/118 144/14/118 146/14/118 103/134/118
f 85/134/119 140/14/119 142/14/119 91/134/119
f 79/134/120 138/14/120 140/14/120 85/134/120
f 82/5/121 139/4/121 141/4/121 88/5/121
f 88/5/122 141/4/122 143/4/122 94/5/122
f 73/135/123 136/14/123 138/14/123 79/134/123
f 67/136/124 134/14/124 136/14/124 73/135/124
f 70/5/125 135/4/125 137/4/125 76/5/125
f 76/5/126 137/4/126 139/4/126 82/5/126
f 61/137/127 132/14/127 134/14/127 67/136/127
f 56/138/127 130/14/127 132/14/127 61/137/127
f 59/5/128 131/4/128 133/4/128 64/5/128
f 64/5/129 133/4/129 135/4/129 70/5/129
f 50/139/130 128/14/130 130/14/130 56/138/130
f 53/5/131 129/4/131 131/4/131 59/5/131
f 1/140/132 109/14/132 128/14/132 50/139/132
f 4/5/133 110/4/133 129/4/133 53/5/133
f 27/9/134 121/7/134 126/7/134 46/9/134
f 41/27/135 123/44/135 127/44/135 49/27/135
f 46/9/136 126/7/136 127/44/136 48/8/136
f 40/8/137 123/44/137 125/44/137 44/8/137
f 44/8/138 125/44/138 124/11/138 42/17/138
f 22/12/139 120/11/139 122/11/139 26/12/139
f 23/9/140 119/7/140 121/7/140 27/9/140
f 26/12/141 122/11/141 124/11/141 43/12/141
f 18/12/142 118/11/142 120/11/142 22/12/142
f 19/9/143 117/7/143 119/7/143 23/9/143
f 10/12/144 114/11/144 118/11/144 18/12/144
f 11/9/145 113/7/145 117/7/145 19/9/145
f 7/9/146 111/7/146 116/7/146 13/9/146
f 6/12/147 112/11/147 115/11/147 15/12/147
f 15/12/148 115/11/148 114/11/148 10/12/148
f 13/9/149 116/7/149 113/7/149 11/9/149
f 5/17/150 112/11/150 109/14/150 1/140/150
f 3/58/151 110/4/151 111/7/151 7/9/151
f 151/141/152 254/141/152 253/141/152 179/141/152 149/141/152
f 203/141/153 247/141/153 246/141/153 219/141/153 207/141/153
f 255/141/154 254/141/154 151/141/154 152/141/154 162/141/154
f 220/141/155 248/141/155 247/141/155 203/141/155 205/141/155
f 256/141/156 255/141/156 162/141/156 163/141/156
f 249/141/157 248/141/157 220/141/157 216/141/157
f 150/141/158 178/141/158 257/141/158 256/141/158 163/141/158 153/141/158
f 250/141/159 249/141/159 216/141/159 174/141/159 175/141/159
f 173/141/160 258/141/160 257/141/160 178/141/160 172/141/160
f 251/141/161 250/141/161 175/141/161 176/141/161
f 217/141/162 244/141/162 243/141/162 169/141/162 177/141/162
f 169/141/163 243/141/163 258/141/163 173/141/163
f 252/141/164 251/141/164 176/141/164 170/141/164
f 215/141/165 245/141/165 244/141/165 217/141/165
f 179/141/166 253/141/166 252/141/166 170/141/166 171/141/166
f 219/141/167 246/141/167 245/141/167 215/141/167
f 250/141/168 251/141/168 252/141/168 259/141/168
f 342/141/169 341/141/169 213/141/169 206/141/169
f 336/141/170 241/141/170 240/141/170 348/141/170
f 343/141/171 342/141/171 206/141/171 223/141/171
f 344/141/172 343/141/172 223/141/172 221/141/172
f 242/141/173 337/141/173 347/141/173 239/141/173
f 345/141/174 344/141/174 221/141/174 222/141/174
f 225/141/175 224/141/175 338/141/175 337/141/175 242/141/175
f 204/141/176 346/141/176 345/141/176 222/141/176
f 224/141/177 236/141/177 339/141/177 338/141/177
f 235/141/178 334/141/178 333/141/178 212/141/178 210/141/178
f 212/141/179 333/141/179 346/141/179 204/141/179
f 340/141/180 339/141/180 236/141/180 238/141/180
f 237/141/181 335/141/181 334/141/181 235/141/181
f 214/141/182 213/141/182 341/141/182 340/141/182 238/141/182
f 241/141/183 336/141/183 335/141/183 237/141/183
f 342/141/184 343/141/184 344/141/184 349/141/184
f 304/141/185 303/141/185 234/141/185 209/141/185 211/141/185
f 232/141/186 297/141/186 296/141/186 230/141/186
f 305/141/187 304/141/187 211/141/187 201/141/187
f 226/141/188 298/141/188 297/141/188 232/141/188
f 306/141/189 305/141/189 201/141/189 199/141/189
f 228/141/190 299/141/190 298/141/190 226/141/190
f 307/141/191 306/141/191 199/141/191 198/141/191
f 227/141/192 300/141/192 299/141/192 228/141/192
f 308/141/193 307/141/193 198/141/193 200/141/193
f 231/141/194 301/141/194 300/141/194 227/141/194
f 208/141/195 294/141/195 293/141/195 202/141/195
f 293/141/196 308/141/196 200/141/196 202/141/196
f 302/141/197 301/141/197 231/141/197 229/141/197
f 233/141/198 295/141/198 294/141/198 208/141/198
f 303/141/199 302/141/199 229/141/199 234/141/199
f 230/141/200 296/141/200 295/141/200 233/141/200
f 300/141/201 301/141/201 302/141/201 309/141/201
f 180/141/202 279/141/202 278/141/202 194/141/202 182/141/202
f 272/141/203 271/141/203 197/141/203 196/141/203
f 188/141/204 280/141/204 279/141/204 180/141/204
f 273/141/205 272/141/205 196/141/205 191/141/205
f 185/141/206 281/141/206 280/141/206 188/141/206
f 274/141/207 273/141/207 191/141/207 192/141/207
f 183/141/208 282/141/208 281/141/208 185/141/208
f 275/141/209 274/141/209 192/141/209 189/141/209
f 184/141/210 283/141/210 282/141/210 183/141/210
f 190/141/211 276/141/211 275/141/211 189/141/211
f 269/141/212 268/141/212 187/141/212 186/141/212 218/141/212
f 268/141/213 283/141/213 184/141/213 187/141/213
f 195/141/214 277/141/214 276/141/214 190/141/214
f 270/141/215 269/141/215 218/141/215 181/141/215 193/141/215
f 194/141/216 278/141/216 277/141/216 195/141/216
f 271/141/217 270/141/217 193/141/217 197/141/217
f 275/141/218 276/141/218 277/141/218 284/141/218
f 167/141/219 322/141/219 321/141/219 168/141/219
f 165/141/220 323/141/220 322/141/220 167/141/220 166/141/220
f 164/141/221 324/141/221 323/141/221 165/141/221
f 159/141/222 325/141/222 324/141/222 164/141/222 160/141/222
f 158/141/223 326/141/223 325/141/223 159/141/223
f 319/141/224 318/141/224 161/141/224 156/141/224 155/141/224
f 161/141/225 318/141/225 326/141/225 158/141/225
f 320/141/226 319/141/226 155/141/226 154/141/226 157/141/226
f 168/141/227 321/141/227 329/141/227
f 327/141/228 320/141/228 157/141/228
f 323/141/229 324/141/229 325/141/229 330/141/229
f 259/141/230 252/141/230 253/141/230 262/141/230
f 262/141/231 253/141/231 254/141/231 265/141/231
f 265/141/232 254/141/232 255/141/232 256/141/232
f 249/141/233 250/141/233 259/141/233 260/141/233
f 260/141/234 259/141/234 262/141/234 263/141/234
f 263/141/235 262/141/235 265/141/235 266/141/235
f 266/141/236 265/141/236 256/141/236 257/141/236
f 248/141/237 249/141/237 260/141/237 261/141/237
f 261/141/238 260/141/238 263/141/238 264/141/238
f 264/141/239 263/141/239 266/141/239 267/141/239
f 267/141/240 266/141/240 257/141/240 258/141/240
f 247/141/241 248/141/241 261/141/241 246/141/241
f 246/141/242 261/141/242 264/141/242 245/141/242
f 245/141/243 264/141/243 267/141/243 244/141/243
f 244/141/244 267/141/244 258/141/244 243/141/244
f 284/141/245 277/141/245 278/141/245 287/141/245
f 287/141/246 278/141/246 279/141/246 290/141/246
f 290/141/247 279/141/247 280/141/247 281/141/247
f 274/141/248 275/141/248 284/141/248 285/141/248
f 285/141/249 284/141/249 287/141/249 288/141/249
f 288/141/250 287/141/250 290/141/250 291/141/250
f 291/141/251 290/141/251 281/141/251 282/141/251
f 273/141/252 274/141/252 285/141/252 286/141/252
f 286/141/253 285/141/253 288/141/253 289/141/253
f 289/141/254 288/141/254 291/141/254 292/141/254
f 292/141/255 291/141/255 282/141/255 283/141/255
f 272/141/256 273/141/256 286/141/256 271/141/256
f 271/141/257 286/141/257 289/141/257 270/141/257
f 270/141/258 289/141/258 292/141/258 269/141/258
f 269/141/259 292/141/259 283/141/259 268/141/259
f 309/141/260 302/141/260 303/141/260 312/141/260
f 312/141/261 303/141/261 304/141/261 315/141/261
f 315/141/262 304/141/262 305/141/262 306/141/262
f 299/141/263 300/141/263 309/141/263 310/141/263
f 310/141/264 309/141/264 312/141/264 313/141/264
f 313/141/265 312/141/265 315/141/265 316/141/265
f 316/141/266 315/141/266 306/141/266 307/141/266
f 298/141/267 299/141/267 310/141/267 311/141/267
f 311/141/268 310/141/268 313/141/268 314/141/268
f 314/141/269 313/141/269 316/141/269 317/141/269
f 317/141/270 316/141/270 307/141/270 308/141/270
f 297/141/271 298/141/271 311/141/271 296/141/271
f 296/141/272 311/141/272 314/141/272 295/141/272
f 295/141/273 314/141/273 317/141/273 294/141/273
f 294/141/274 317/141/274 308/141/274 293/141/274
f 330/141/275 325/141/275 326/141/275 318/141/275
f 322/141/276 323/141/276 330/141/276 331/141/276
f 331/141/277 330/141/277 318/141/277 319/141/277
f 321/141/278 322/141/278 331/141/278 332/141/278
f 332/141/279 331/141/279 319/141/279 320/141/279
f 329/141/280 321/141/280 332/141/280 328/141/280
f 328/141/281 332/141/281 320/141/281 327/141/281
f 349/141/282 344/141/282 345/141/282 352/141/282
f 352/141/283 345/141/283 346/141/283 355/141/283
f 355/141/284 346/141/284 333/141/284 334/141/284
f 341/141/285 342/141/285 349/141/285 350/141/285
f 350/141/286 349/141/286 352/141/286 353/141/286
f 353/141/287 352/141/287 355/141/287 356/141/287
f 356/141/288 355/141/288 334/141/288 335/141/288
f 340/141/289 341/141/289 350/141/289 351/141/289
f 351/141/290 350/141/290 353/141/290 354/141/290
f 354/141/291 353/141/291 356/141/291 357/141/291
f 357/141/292 356/141/292 335/141/292 336/141/292
f 339/141/293 340/141/293 351/141/293 338/141/293
f 338/141/294 351/141/294 354/141/294 337/141/294
f 337/141/295 354/141/295 357/141/295 347/141/295
f 347/141/184 357/141/184 336/141/184 348/141/184
