# Blender 5.0.1
# www.blender.org
mtllib Asteroid_4.mtl
o Cube
v -0.799482 -0.266273 0.841070
v -0.569095 0.013989 0.324025
v -0.457426 0.013989 0.319293
v -0.144770 0.013313 0.090718
v -0.559926 0.013989 0.215610
v -0.102616 -0.266273 0.353465
v 0.109979 0.013313 0.250244
v -0.450032 0.013989 0.214131
v -0.523843 0.013989 0.199343
v 0.114728 0.013313 -0.139267
v -0.491014 0.013989 0.195498
v -0.113565 -0.266273 -0.406753
v 0.360305 0.013313 0.075290
v -0.471198 0.013989 0.201709
v -0.026288 -0.266273 0.266233
v -0.431695 0.013989 0.235426
v -0.421343 0.013989 0.253763
v 0.204253 -0.266273 0.124453
v 0.047314 -0.266273 0.313938
v -0.424005 0.013989 0.274171
v 0.369476 0.013313 0.035851
v -0.433469 0.013989 0.298127
v -0.488185 0.013989 0.332306
v 0.832976 -0.266273 -0.702284
v -0.510959 0.013989 0.339405
v 0.105750 -0.266273 0.322048
v 0.351133 0.013313 -0.026516
v -0.537282 0.013989 0.336447
v 0.275008 0.013313 -0.091635
v -0.597192 0.013989 0.301252
v -0.607839 0.013989 0.281140
v -0.219834 -0.266273 0.420252
v 0.199800 0.013313 -0.123736
v -0.605178 0.013989 0.257775
v -0.587432 0.013989 0.236184
v -0.193937 -0.266273 0.470683
v -0.023765 0.013313 -0.127344
v -0.086260 -0.266273 0.521114
v -0.134742 0.013313 -0.074148
v -0.138054 -0.266273 0.560641
v -0.182435 0.013313 -0.024621
v -0.420195 -0.266273 0.590627
v -0.182435 0.013313 0.014818
v -0.477441 -0.266273 0.641058
v -0.495582 -0.266273 0.741232
v -0.096160 0.013313 0.154920
v -0.031041 0.013313 0.214536
v -0.542909 -0.266273 0.827209
v 0.025824 0.013313 0.232879
v -0.679366 -0.266273 0.844561
v -0.783707 -0.266273 0.785067
v -0.725337 -0.266273 0.686471
v -0.701674 -0.266273 0.613904
v -0.711928 -0.266273 0.566577
v -0.765565 -0.266273 0.447473
v -0.772664 -0.266273 0.378849
v -0.756100 -0.266273 0.290507
v -0.715872 -0.266273 0.213996
v -0.660658 -0.266273 0.149316
v -0.581781 -0.266273 0.083848
v -0.503692 -0.266273 0.026268
v -0.471353 -0.266273 -0.023425
v -0.449267 -0.266273 -0.107035
v -0.438224 -0.266273 -0.173292
v -0.411406 -0.266273 -0.208786
v -0.323063 -0.266273 -0.270311
v -0.213424 -0.266273 -0.339723
v 0.139272 -0.266273 0.284581
v 0.162278 -0.266273 0.180726
v 0.277214 -0.266273 0.103419
v 0.385013 -0.266273 0.102762
v 0.426424 -0.266273 0.063323
v 0.427738 -0.266273 -0.018841
v 0.404732 -0.266273 -0.109549
v 0.426424 -0.266273 -0.148988
v 0.507273 -0.266273 -0.191713
v 0.590094 -0.266273 -0.199601
v 0.655168 -0.266273 -0.207489
v 0.675544 -0.266273 -0.242984
v 0.648594 -0.266273 -0.308057
v 0.639392 -0.266273 -0.345524
v 0.674887 -0.266273 -0.387592
v 0.703151 -0.266273 -0.415856
v 0.712354 -0.266273 -0.478958
v 0.717612 -0.266273 -0.538116
v 0.766253 -0.266273 -0.572296
v 0.825411 -0.266273 -0.607791
v 0.840529 -0.266273 -0.653145
v 0.790908 -0.266273 -0.743695
v 0.629210 -0.266273 -0.758156
v 0.362062 -0.266273 -0.730896
v 0.171242 -0.266273 -0.627308
v 0.022675 -0.266273 -0.500549
v -0.861009 -0.110825 0.902861
v -0.111056 -0.110825 0.378111
v -0.122839 -0.110825 -0.440021
v -0.028913 -0.110825 0.284234
v 0.219190 -0.110825 0.131652
v 0.050296 -0.110825 0.335573
v 0.895809 -0.110825 -0.758066
v 0.113183 -0.110825 0.344300
v -0.194008 -0.110825 0.438562
v -0.175153 -0.110825 0.475994
v -0.077021 -0.110825 0.523694
v -0.149193 -0.110825 0.601069
v -0.452828 -0.110825 0.633340
v -0.514435 -0.110825 0.687613
v -0.533958 -0.110825 0.795418
v -0.584890 -0.110825 0.887944
v -0.731743 -0.110825 0.906619
v -0.844032 -0.110825 0.842592
v -0.781216 -0.110825 0.736484
v -0.755750 -0.110825 0.658389
v -0.766786 -0.110825 0.607457
v -0.824508 -0.110825 0.479279
v -0.832148 -0.110825 0.405429
v -0.814322 -0.110825 0.310356
v -0.771030 -0.110825 0.228016
v -0.711610 -0.110825 0.158410
v -0.626724 -0.110825 0.087954
v -0.542686 -0.110825 0.025987
v -0.507883 -0.110825 -0.027491
v -0.484115 -0.110825 -0.117470
v -0.472231 -0.110825 -0.188774
v -0.443370 -0.110825 -0.226973
v -0.348297 -0.110825 -0.293184
v -0.230305 -0.110825 -0.367884
v 0.149259 -0.110825 0.303979
v 0.174018 -0.110825 0.192212
v 0.297709 -0.110825 0.109016
v 0.413720 -0.110825 0.108309
v 0.458286 -0.110825 0.065866
v 0.459700 -0.110825 -0.022557
v 0.434942 -0.110825 -0.120176
v 0.458286 -0.110825 -0.162620
v 0.545294 -0.110825 -0.208600
v 0.634424 -0.110825 -0.217088
v 0.704455 -0.110825 -0.225577
v 0.726384 -0.110825 -0.263776
v 0.697382 -0.110825 -0.333807
v 0.687478 -0.110825 -0.374128
v 0.725677 -0.110825 -0.419400
v 0.756095 -0.110825 -0.449818
v 0.765998 -0.110825 -0.517727
v 0.771657 -0.110825 -0.581391
v 0.824003 -0.110825 -0.618175
v 0.887668 -0.110825 -0.656374
v 0.903938 -0.110825 -0.705184
v 0.850537 -0.110825 -0.802631
v 0.676520 -0.110825 -0.818194
v 0.389021 -0.110825 -0.788857
v 0.183664 -0.110825 -0.677378
v 0.023780 -0.110825 -0.540962
v 0.020689 0.044674 -0.415581
v 0.145384 0.044674 -0.521972
v 0.405415 0.044674 -0.729516
v 0.629637 0.044674 -0.752396
v 0.765354 0.044674 -0.740258
v 0.807002 0.044674 -0.664258
v 0.794313 0.044674 -0.626191
v 0.744660 0.044674 -0.596400
v 0.703835 0.044674 -0.567712
v 0.699421 0.044674 -0.518060
v 0.691698 0.044674 -0.465097
v 0.667975 0.044674 -0.441374
v 0.638184 0.044674 -0.406066
v 0.645907 0.044674 -0.374619
v 0.668527 0.044674 -0.320002
v 0.651424 0.044674 -0.290210
v 0.596807 0.044674 -0.283590
v 0.507931 0.044674 -0.255781
v 0.418356 0.044674 -0.195131
v 0.341357 0.044674 -0.087408
v 0.360666 0.044674 -0.011274
v -0.177473 0.044674 -0.280597
v -0.269496 0.044674 -0.222338
v -0.343643 0.044674 -0.170699
v -0.366152 0.044674 -0.140908
v -0.375421 0.044674 -0.085297
v -0.393957 0.044674 -0.015122
v -0.421101 0.044674 0.026586
v -0.486642 0.044674 0.074914
v -0.552845 0.044674 0.129863
v -0.599187 0.044674 0.184150
v -0.632951 0.044674 0.248367
v -0.646854 0.044674 0.322514
v -0.640895 0.044674 0.380111
v -0.595877 0.044674 0.480078
v -0.587271 0.044674 0.519800
v -0.607132 0.044674 0.580707
v -0.656122 0.044674 0.663461
v -0.603553 0.044674 0.708291
v -0.547364 0.044674 0.670389
v -0.520040 0.044674 0.596769
v -0.467620 0.044674 0.552801
v -0.398423 0.044674 0.538186
v -0.226523 0.044674 0.554587
v -0.170235 0.044674 0.494242
v -0.246769 0.044674 0.457041
v -0.261474 0.044674 0.427847
v 0.090415 0.044674 0.274840
v 0.800662 0.044674 -0.705502
v 0.041369 0.044674 0.268033
v -0.020406 0.044674 0.227994
v -0.093659 0.044674 -0.336857
v -0.084470 0.044674 0.301209
v -0.669363 0.044674 0.710465
v 0.364307 0.037202 0.058080
v 0.369476 0.029630 0.035851
v 0.360406 0.044674 0.005012
v 0.342738 0.013313 0.094322
v 0.356202 0.013313 0.081500
v 0.360305 0.016817 0.075290
v 0.247111 0.013313 0.094905
v 0.182388 0.013313 0.113564
v 0.126718 0.013313 0.246703
v 0.120858 0.032997 0.247943
v 0.145153 0.013313 0.163484
v 0.112992 0.044674 0.249607
v -0.134742 0.044674 -0.074148
v -0.023765 0.044674 -0.127344
v 0.114728 0.044674 -0.139267
v -0.182435 0.044674 -0.024621
v 0.199800 0.044674 -0.123736
v -0.182435 0.044674 0.014818
v 0.351133 0.044674 -0.026516
v 0.275008 0.044674 -0.091635
v -0.144770 0.044674 0.090718
v -0.096160 0.044674 0.154920
v 0.109979 0.044674 0.250244
v -0.031041 0.044674 0.214536
v 0.025824 0.044674 0.232879
v -0.605178 0.044674 0.257775
v -0.607839 0.044674 0.281140
v -0.597892 0.044674 0.299929
v -0.587432 0.044674 0.236184
v -0.576233 0.044674 0.227807
v -0.559926 0.044674 0.215610
v -0.537282 0.044674 0.336447
v -0.569095 0.044674 0.324025
v -0.491014 0.044674 0.195498
v -0.597192 0.044674 0.301252
v -0.523843 0.044674 0.199343
v -0.510959 0.044674 0.339405
v -0.450032 0.044674 0.214131
v -0.424005 0.044674 0.274171
v -0.433469 0.044674 0.298127
v -0.457426 0.044674 0.319293
v -0.431695 0.044674 0.235426
v -0.421343 0.044674 0.253763
v -0.471198 0.044674 0.201709
v -0.488185 0.044674 0.332306
vn -0.0000 -1.0000 -0.0000
vn -0.0946 0.3636 -0.9267
vn -0.8516 -0.1439 -0.5041
vn 0.8475 -0.2121 0.4865
vn -0.9241 -0.2352 -0.3013
vn 0.8711 -0.3332 -0.3608
vn -0.9072 -0.3719 0.1966
vn 0.9182 -0.3255 -0.2255
vn -0.8377 -0.3948 0.3773
vn 0.7590 -0.1170 0.6404
vn -0.9241 -0.3700 0.0956
vn 0.7045 -0.0860 0.7045
vn -0.9292 -0.3258 -0.1742
vn 0.9464 -0.2922 0.1380
vn -0.8541 -0.2625 -0.4490
vn 0.9482 -0.3062 0.0843
vn -0.7441 -0.2067 -0.6352
vn 0.5747 0.0279 0.8179
vn -0.6302 -0.1622 -0.7593
vn -0.5453 -0.2064 -0.8124
vn 0.5135 0.0618 0.8559
vn -0.5869 -0.1487 -0.7959
vn 0.6829 -0.0960 0.7242
vn 0.9133 -0.2706 0.3044
vn -0.8200 -0.2067 -0.5337
vn 0.4303 -0.0159 -0.9025
vn 0.6175 -0.4747 -0.6273
vn -0.9414 -0.2277 -0.2487
vn 0.5308 -0.1451 0.8350
vn 0.0824 -0.3808 -0.9210
vn -0.9608 -0.2261 -0.1601
vn -0.5549 -0.2056 -0.8061
vn -0.0957 -0.3332 -0.9380
vn -0.7768 -0.2284 -0.5869
vn 0.7511 -0.0634 0.6572
vn -0.4634 -0.2379 -0.8536
vn -0.5589 -0.2088 -0.8025
vn 0.7972 -0.1041 0.5946
vn -0.6373 -0.1897 -0.7469
vn -0.5234 -0.2066 -0.8267
vn 0.9000 -0.4134 -0.1383
vn 0.7389 -0.1300 0.6611
vn -0.5408 -0.1058 0.8344
vn 0.9724 -0.0894 0.2154
vn -0.1362 -0.1340 0.9816
vn 0.2763 -0.0709 0.9584
vn -0.0269 -0.3784 0.9252
vn 0.0061 -0.0368 0.9993
vn 0.8872 -0.0930 -0.4519
vn 0.6817 -0.1514 0.7158
vn 0.1025 -0.2435 0.9645
vn 0.9795 -0.2010 0.0157
vn 0.6595 -0.0673 0.7487
vn 0.9495 -0.2010 -0.2408
vn 0.9683 0.1779 0.1754
vn 0.8681 -0.1361 0.4774
vn 0.8750 0.0481 0.4817
vn 0.4671 -0.0182 0.8840
vn 0.1189 -0.3333 0.9353
vn 0.0945 0.0846 0.9919
vn -0.9285 -0.2635 -0.2616
vn 0.1200 0.0771 0.9898
vn -0.6244 0.7785 0.0646
vn 0.4882 0.3285 0.8085
vn -0.4748 0.5467 -0.6897
vn 0.8695 0.2721 0.4122
vn -0.7992 0.5862 -0.1332
vn 0.8182 0.5362 -0.2075
vn 0.0813 0.4091 -0.9089
vn 0.4164 0.4491 0.7906
vn 0.5587 0.2921 0.7762
vn 0.8438 0.5364 0.0135
vn -0.7814 0.5889 -0.2064
vn 0.0303 0.4161 0.9088
vn 0.5828 0.5567 -0.5920
vn 0.7157 0.3509 0.6039
vn 0.4353 0.0913 -0.8956
vn 0.6227 0.4297 0.6539
vn -0.7003 0.5494 -0.4558
vn 0.8412 0.3358 -0.4237
vn 0.8457 0.4530 0.2819
vn 0.0061 0.1154 0.9933
vn 0.6360 0.4936 0.5932
vn -0.0050 0.7844 0.6202
vn -0.5377 0.4232 -0.7292
vn 0.2704 0.2168 0.9380
vn 0.5094 0.1410 0.8489
vn -0.1266 0.3891 0.9125
vn -0.4661 0.5482 -0.6944
vn 0.9409 0.2670 0.2084
vn -0.5688 0.4549 -0.6853
vn -0.5160 0.3162 0.7961
vn 0.5660 0.1760 0.8054
vn 0.6903 0.3769 0.6176
vn -0.6112 0.7803 0.1324
vn -0.6355 0.5493 -0.5425
vn 0.8264 0.5486 -0.1270
vn 0.7832 0.3358 0.5233
vn 0.9162 0.3924 0.0814
vn -0.4473 0.5485 -0.7065
vn 0.8339 0.3877 0.3928
vn 0.1851 0.3765 0.9078
vn -0.5564 0.5148 -0.6522
vn -0.5457 0.8011 0.2458
vn -0.6754 0.6463 -0.3551
vn 0.7624 0.3089 0.5687
vn 0.9050 0.2012 -0.3748
vn 0.9110 0.3903 0.1329
vn -0.4762 0.5529 -0.6838
vn 0.9401 0.2506 -0.2309
vn -0.6701 0.7315 -0.1256
vn -0.4996 0.4681 -0.7289
vn 0.7749 0.4491 0.4448
vn 0.6648 0.3406 0.6648
vn 0.7384 0.1933 0.6461
vn -0.7331 0.6480 -0.2065
vn 0.1766 0.7532 0.6336
vn -0.7592 0.6019 -0.2476
vn -0.6445 0.5895 -0.4869
vn 0.1096 0.4131 0.9040
vn -0.7838 0.4127 -0.4640
vn -0.0000 1.0000 -0.0000
vn 0.4322 -0.0000 0.9018
vn -0.2070 -0.0000 -0.9783
vn 0.7203 -0.0000 0.6936
vn 1.0000 -0.0000 -0.0000
vn -0.9740 -0.0000 -0.2265
vn 0.7973 -0.0000 -0.6036
vn -0.9594 -0.0000 0.2822
vn 0.8958 -0.0000 -0.4445
vn 0.6753 -0.0000 -0.7376
vn -0.6500 -0.0000 0.7599
vn 0.2021 -0.0000 -0.9794
vn 0.3070 -0.0000 -0.9517
vn -0.3926 -0.0000 0.9197
vn -0.8344 -0.0000 -0.5512
vn 0.0858 -0.0000 0.9963
vn -0.1796 -0.0000 0.9837
vn -0.9301 -0.0000 -0.3674
vn -0.5062 -0.0000 0.8624
vn -0.3896 -0.0000 -0.9210
vn 0.4110 -0.0000 0.9116
vn -0.2976 -0.0000 -0.9547
vn 0.1163 -0.0000 0.9932
vn 0.1117 -0.0000 -0.9937
vn -0.2991 -0.0000 0.9542
vn 0.6297 -0.0000 -0.7769
vn -0.7578 -0.0000 0.6525
vn 0.5990 -0.0000 0.8008
vn 0.8838 -0.0000 -0.4679
vn -0.8708 -0.0000 0.4916
vn 0.3637 -0.0000 -0.9315
vn 0.9936 -0.0000 0.1132
vn -0.9916 -0.0000 -0.1293
vn -0.6621 -0.0000 -0.7494
vn 0.7725 -0.0000 0.6350
vt 0.375000 0.750000
vt 0.125000 0.750000
vt 0.125000 0.500000
vt 0.375000 0.500000
vt 0.375000 0.750000
vt 0.375000 0.750000
vt 0.373774 0.748191
vt 0.144890 0.748990
vt 0.148358 0.748757
vt 0.157543 0.748116
vt 0.168682 0.747338
vt 0.178265 0.746747
vt 0.190670 0.746088
vt 0.205121 0.745561
vt 0.215472 0.745351
vt 0.220886 0.745499
vt 0.224229 0.745815
vt 0.219531 0.746357
vt 0.208120 0.746950
vt 0.198172 0.747377
vt 0.183750 0.747847
vt 0.165462 0.748435
vt 0.148827 0.749009
vt 0.148327 0.749027
vt 0.374368 0.749718
vt 0.366102 0.746906
vt 0.360265 0.745774
vt 0.310631 0.735328
vt 0.270365 0.730918
vt 0.231366 0.729680
vt 0.219150 0.728193
vt 0.222503 0.716753
vt 0.255388 0.682499
vt 0.310227 0.676422
vt 0.335725 0.694318
vt 0.355709 0.720321
vt 0.141170 0.749293
vt 0.138907 0.749357
vt 0.142193 0.749153
vt 0.993345 0.751944
vt 1.000000 0.927782
vt 1.000000 1.000000
vt 0.000000 1.000000
vt 0.000000 0.000000
vt 1.000000 0.000000
vt 0.749607 0.209124
vt 0.756394 0.361937
vt 0.861096 0.458579
vt 0.000000 0.407150
s 0
usemtl 
f 79/1/1 78/1/1 77/1/1 76/1/1 75/1/1 74/1/1 73/1/1 72/1/1 71/1/1 70/1/1 18/1/1 69/1/1 68/1/1 26/1/1 19/1/1 15/1/1 6/1/1 32/1/1 36/1/1 38/1/1 40/1/1 42/1/1 44/1/1 45/1/1 48/1/1 50/1/1 1/2/1 51/2/1 52/2/1 53/2/1 54/2/1 55/2/1 56/2/1 57/2/1 58/2/1 59/2/1 60/2/1 61/2/1 62/2/1 63/2/1 64/2/1 65/2/1 66/2/1 67/2/1 12/3/1 93/4/1 92/4/1 91/4/1 90/4/1 89/4/1 24/4/1 88/1/1 87/1/1 86/1/1 85/1/1 84/1/1 83/1/1 82/1/1 81/1/1 80/1/1
f 151/4/2 156/4/2 157/4/2 150/4/2
f 51/2/3 111/2/3 112/2/3 52/2/3
f 79/1/4 139/1/4 138/1/4 78/1/4
f 52/2/5 112/2/5 113/2/5 53/2/5
f 80/1/6 140/1/6 139/1/6 79/1/6
f 53/2/7 113/2/7 114/2/7 54/2/7
f 81/1/8 141/1/8 140/1/8 80/1/8
f 54/2/9 114/2/9 115/2/9 55/2/9
f 82/1/10 142/1/10 141/1/10 81/1/10
f 55/2/11 115/2/11 116/2/11 56/2/11
f 83/1/12 143/1/12 142/1/12 82/1/12
f 56/2/13 116/2/13 117/2/13 57/2/13
f 84/1/14 144/1/14 143/1/14 83/1/14
f 57/2/15 117/2/15 118/2/15 58/2/15
f 85/1/16 145/1/16 144/1/16 84/1/16
f 58/2/17 118/2/17 119/2/17 59/2/17
f 86/1/18 146/1/18 145/1/18 85/1/18
f 59/2/19 119/2/19 120/2/19 60/2/19
f 67/2/20 127/2/20 96/3/20 12/3/20
f 87/1/21 147/1/21 146/1/21 86/1/21
f 60/2/22 120/2/22 121/2/22 61/2/22
f 38/1/23 104/1/23 105/1/23 40/1/23
f 88/1/24 148/1/24 147/1/24 87/1/24
f 61/2/25 121/2/25 122/2/25 62/2/25
f 36/1/26 103/1/26 104/1/26 38/1/26
f 89/4/27 149/4/27 100/4/27 24/4/27
f 62/2/28 122/2/28 123/2/28 63/2/28
f 6/1/29 95/1/29 102/1/29 32/1/29
f 90/4/30 150/4/30 149/4/30 89/4/30
f 63/2/31 123/2/31 124/2/31 64/2/31
f 12/3/32 96/3/32 153/4/32 93/4/32
f 91/4/33 151/4/33 150/4/33 90/4/33
f 64/2/34 124/2/34 125/2/34 65/2/34
f 15/1/35 97/1/35 95/1/35 6/1/35
f 92/4/36 152/4/36 151/4/36 91/4/36
f 65/2/37 125/2/37 126/2/37 66/2/37
f 18/1/38 98/1/38 129/1/38 69/1/38
f 93/4/39 153/4/39 152/4/39 92/4/39
f 66/2/40 126/2/40 127/2/40 67/2/40
f 24/4/41 100/4/41 148/1/41 88/1/41
f 68/1/42 128/1/42 101/1/42 26/1/42
f 19/1/43 99/1/43 97/1/43 15/1/43
f 69/1/44 129/1/44 128/1/44 68/1/44
f 26/1/45 101/1/45 99/1/45 19/1/45
f 70/1/46 130/1/46 98/1/46 18/1/46
f 50/1/47 110/1/47 94/2/47 1/2/47
f 71/1/48 131/1/48 130/1/48 70/1/48
f 32/1/49 102/1/49 103/1/49 36/1/49
f 72/1/50 132/1/50 131/1/50 71/1/50
f 40/1/51 105/1/51 106/1/51 42/1/51
f 73/1/52 133/1/52 132/1/52 72/1/52
f 42/1/53 106/1/53 107/1/53 44/1/53
f 74/1/54 134/1/54 133/1/54 73/1/54
f 44/1/55 107/1/55 108/1/55 45/1/55
f 75/1/56 135/1/56 134/1/56 74/1/56
f 45/1/57 108/1/57 109/1/57 48/1/57
f 76/1/58 136/1/58 135/1/58 75/1/58
f 48/1/59 109/1/59 110/1/59 50/1/59
f 77/1/60 137/1/60 136/1/60 76/1/60
f 1/2/61 94/2/61 111/2/61 51/2/61
f 78/1/62 138/1/62 137/1/62 77/1/62
f 115/2/63 187/2/63 186/2/63 116/2/63
f 136/1/64 171/1/64 172/1/64 135/1/64
f 96/3/65 205/3/65 154/4/65 153/4/65
f 107/1/66 195/1/66 194/1/66 108/1/66
f 123/2/67 179/2/67 178/2/67 124/2/67
f 174/1/68 133/1/68 134/1/68 173/1/68
f 150/4/69 157/4/69 158/4/69 149/4/69
f 106/1/70 196/1/70 195/1/70 107/1/70
f 95/1/71 206/1/71 200/1/71 102/1/71
f 208/1/72 132/1/72 133/1/72 174/1/72 210/1/72 209/1/72
f 122/2/73 180/2/73 179/2/73 123/2/73
f 105/1/74 197/1/74 196/1/74 106/1/74
f 149/4/75 158/4/75 202/4/75 100/4/75
f 142/1/76 165/1/76 166/1/76 141/1/76
f 103/1/77 199/1/77 198/1/77 104/1/77
f 211/1/78 131/1/78 132/1/78 208/1/78 213/1/78 212/5/78
f 121/2/79 181/2/79 180/2/79 122/2/79
f 102/1/80 200/1/80 199/1/80 103/1/80
f 148/1/81 159/1/81 160/1/81 147/1/81
f 130/1/82 131/1/82 211/1/82 214/1/82
f 104/1/83 198/1/83 197/1/83 105/1/83
f 110/1/84 192/1/84 207/2/84 94/2/84
f 120/2/85 182/2/85 181/2/85 121/2/85
f 98/1/86 130/1/86 214/1/86 215/1/86
f 147/1/87 160/1/87 161/1/87 146/1/87
f 101/1/88 201/1/88 203/1/88 99/1/88
f 127/2/89 175/2/89 205/3/89 96/3/89
f 216/6/90 217/1/90 128/1/90 129/1/90 218/1/90
f 119/2/91 183/2/91 182/2/91 120/2/91
f 99/1/92 203/1/92 204/1/92 97/1/92
f 146/1/93 161/1/93 162/1/93 145/1/93
f 219/1/94 201/1/94 101/1/94 128/1/94 217/1/94
f 113/2/95 189/2/95 188/2/95 114/2/95
f 118/2/96 184/2/96 183/2/96 119/2/96
f 100/4/97 202/4/97 159/1/97 148/1/97
f 135/1/98 172/1/98 173/1/98 134/1/98
f 145/1/99 162/1/99 163/1/99 144/1/99
f 126/2/100 176/2/100 175/2/100 127/2/100
f 108/1/101 194/1/101 193/1/101 109/1/101
f 137/1/102 170/1/102 171/1/102 136/1/102
f 153/4/103 154/4/103 155/4/103 152/4/103
f 114/2/104 188/2/104 187/2/104 115/2/104
f 117/2/105 185/2/105 184/2/105 118/2/105
f 218/1/106 129/1/106 98/1/106 215/1/106
f 140/1/107 167/1/107 168/1/107 139/1/107
f 144/1/108 163/1/108 164/1/108 143/1/108
f 125/2/109 177/2/109 176/2/109 126/2/109
f 141/1/110 166/1/110 167/1/110 140/1/110
f 116/2/111 186/2/111 185/2/111 117/2/111
f 152/4/112 155/4/112 156/4/112 151/4/112
f 139/1/113 168/1/113 169/1/113 138/1/113
f 143/1/114 164/1/114 165/1/114 142/1/114
f 97/1/115 204/1/115 206/1/115 95/1/115
f 94/2/116 207/2/116 191/2/116 111/2/116
f 109/1/117 193/1/117 192/1/117 110/1/117
f 112/2/118 190/2/118 189/2/118 113/2/118
f 124/2/119 178/2/119 177/2/119 125/2/119
f 138/1/120 169/1/120 170/1/120 137/1/120
f 111/2/121 191/2/121 190/2/121 112/2/121
f 226/7/122 210/1/122 174/1/122 173/1/122 172/1/122 171/1/122 170/1/122 169/1/122 168/1/122 167/1/122 166/1/122 165/1/122 164/1/122 163/1/122 162/1/122 161/1/122 160/1/122 159/1/122 202/4/122 158/4/122 157/4/122 156/4/122 155/4/122 154/4/122 205/3/122 175/2/122 176/2/122 177/2/122 178/2/122 179/2/122 180/2/122 181/2/122 182/2/122 183/2/122 184/2/122 237/8/122 238/9/122 243/10/122 241/11/122 251/12/122 245/13/122 249/14/122 250/15/122 246/16/122 247/17/122 248/18/122 252/19/122 244/20/122 239/21/122 240/22/122 242/23/122 235/24/122 186/2/122 187/2/122 188/2/122 189/2/122 190/2/122 191/2/122 207/2/122 192/1/122 193/1/122 194/1/122 195/1/122 196/1/122 197/1/122 198/1/122 199/1/122 200/1/122 206/1/122 204/1/122 203/1/122 201/1/122 219/1/122 230/25/122 232/26/122 231/27/122 229/28/122 228/29/122 225/30/122 223/31/122 220/32/122 221/33/122 222/34/122 224/35/122 227/36/122
f 184/2/122 185/2/122 186/2/122 235/24/122 234/37/122 233/38/122 236/39/122 237/8/122
f 211/40/122 212/41/122 13/42/122 21/42/122 27/42/122 29/42/122 33/42/122 10/43/122 37/43/122 39/43/122 41/43/122 43/43/122 4/44/122 46/44/122 47/44/122 49/44/122 7/45/122 216/45/122 218/46/122 215/47/122 214/48/122
f 220/43/123 39/43/123 37/43/123 221/43/123
f 219/45/124 217/45/124 216/45/124 7/45/124 230/45/124
f 223/43/125 41/43/125 39/43/125 220/43/125
f 225/43/126 43/43/126 41/43/126 223/43/126
f 213/42/127 208/42/127 209/42/127 21/42/127 13/42/127
f 46/44/128 4/44/128 228/44/128 229/44/128
f 226/42/129 27/42/129 21/42/129 209/42/129 210/42/129
f 4/44/130 43/43/130 225/43/130 228/44/130
f 231/44/131 47/44/131 46/44/131 229/44/131
f 227/42/132 29/42/132 27/42/132 226/42/132
f 230/45/133 7/45/133 49/44/133 232/44/133
f 49/44/134 47/44/134 231/44/134 232/44/134
f 224/42/135 33/42/135 29/42/135 227/42/135
f 13/42/136 212/41/136 213/42/136
f 221/43/137 37/43/137 10/43/137 222/43/137
f 222/43/138 10/43/138 33/42/138 224/42/138
f 34/44/122 31/44/122 30/44/122 2/44/122 28/45/122 25/45/122 23/45/122 3/45/122 22/42/122 20/42/122 17/42/122 16/42/122 8/42/122 14/43/122 11/43/122 9/43/122 5/43/122 35/44/122
f 20/42/139 22/42/139 247/42/139 246/42/139
f 251/43/140 14/43/140 8/42/140 245/42/140
f 3/45/141 23/45/141 252/45/141 248/45/141
f 238/43/142 5/43/142 9/43/142 243/43/142
f 23/45/143 25/45/143 244/45/143 252/45/143
f 243/43/144 9/43/144 11/43/144 241/43/144
f 25/45/145 28/45/145 239/45/145 244/45/145
f 241/43/146 11/43/146 14/43/146 251/43/146
f 2/44/147 30/44/147 242/44/147 240/44/147
f 245/42/148 8/42/148 16/42/148 249/42/148
f 236/44/149 35/44/149 5/43/149 238/43/149 237/49/149
f 30/44/150 31/44/150 234/44/150 235/44/150 242/44/150
f 249/42/151 16/42/151 17/42/151 250/42/151
f 28/45/152 2/44/152 240/44/152 239/45/152
f 234/44/153 31/44/153 34/44/153 233/44/153
f 17/42/154 20/42/154 246/42/154 250/42/154
f 22/42/155 3/45/155 248/45/155 247/42/155
f 233/44/156 34/44/156 35/44/156 236/44/156
