# Blender 5.0.1
# www.blender.org
mtllib Asteroid_3.mtl
o Cube.001
v -0.205007 -0.269174 0.467051
v -0.209801 0.270229 0.484003
v -0.158568 -0.269174 -0.750303
v -0.162219 0.270229 -0.763309
v -0.077743 -0.269174 0.474383
v -0.079406 0.270229 0.491516
v -0.031305 -0.269174 -0.752747
v -0.031824 0.270229 -0.765813
v 0.048015 -0.273672 0.497503
v 0.049448 0.274837 0.515204
v 0.095287 -0.273672 -0.751652
v 0.097883 0.274837 -0.764691
v 0.165074 -0.273672 0.501933
v 0.169387 0.274837 0.519743
v 0.212346 -0.273672 -0.747222
v 0.217823 0.274837 -0.760152
v 0.302956 -0.255523 0.450802
v 0.310663 0.256242 0.467354
v 0.356642 -0.255523 -0.724149
v 0.365669 0.256242 -0.736511
v 0.410021 -0.228844 0.381741
v 0.420362 0.228907 0.396594
v 0.419656 -0.228844 -0.647912
v 0.430235 0.228907 -0.658398
v 0.466074 -0.129929 0.191650
v 0.477795 0.127558 0.201825
v 0.473535 -0.129929 -0.365444
v 0.485439 0.127558 -0.368978
v 0.528323 -0.081547 0.070531
v 0.541576 0.077985 0.077725
v 0.542996 -0.081547 -0.239048
v 0.556610 0.077985 -0.239472
v -0.308439 -0.269174 0.463105
v -0.315778 0.270229 0.479960
v -0.272493 -0.269174 -0.729765
v -0.278948 0.270229 -0.742265
v -0.167574 -0.295484 -0.514216
v -0.171447 0.270229 -0.521412
v -0.040311 -0.295484 -0.514764
v -0.041052 0.270229 -0.521974
v 0.086120 -0.299982 -0.509398
v 0.088490 0.274837 -0.516475
v 0.203179 -0.299982 -0.504968
v 0.208429 0.274837 -0.511936
v 0.346231 -0.281833 -0.496286
v 0.355002 0.256242 -0.503040
v 0.417788 -0.228844 -0.448227
v 0.428320 0.228907 -0.453799
v 0.472088 -0.129929 -0.257404
v 0.483956 0.127558 -0.258280
v 0.540151 -0.081547 -0.179010
v 0.553694 0.077985 -0.177957
v -0.267695 -0.269174 -0.507842
v -0.281838 0.270229 -0.516572
v -0.342137 -0.076569 -0.705327
v -0.350305 0.072884 -0.717226
v -0.356119 -0.076569 -0.662799
v -0.367276 0.072884 -0.666772
v -0.596358 -0.269174 0.340527
v -0.610782 0.270229 0.354365
v -0.584422 -0.269174 -0.267670
v -0.586195 0.270229 -0.283552
v -0.675479 -0.269174 0.211035
v -0.691851 0.270229 0.221687
v -0.685129 -0.269174 -0.223492
v -0.700600 0.270229 -0.224473
v -0.797765 -0.269174 -0.096785
v -0.817145 0.270229 -0.093709
v -0.802825 -0.269174 -0.176644
v -0.834418 0.270229 -0.173866
v 0.019577 0.176871 -0.319185
v 0.060226 0.276576 -0.368860
v -0.014288 0.225066 -0.537471
v 0.036945 0.306409 -0.518931
v 0.236895 0.176871 -0.288223
v 0.209632 0.276576 -0.347574
v 0.281403 0.225066 -0.484255
v 0.240231 0.306409 -0.482346
v 0.133558 0.225066 -0.510863
v 0.136973 0.318346 -0.509691
v 0.128666 0.170604 -0.239052
v 0.133315 0.288514 -0.367270
v -0.391203 0.192031 0.008096
v -0.137925 0.192031 0.244311
v -0.450442 0.192031 -0.237715
v -0.168968 0.172739 -0.122267
v -0.391203 0.192031 0.061438
v -0.402316 0.192031 0.111075
v -0.394907 0.192031 0.149600
v -0.348233 0.192031 0.195533
v -0.273406 0.192031 0.242948
v -0.410465 0.192031 -0.022280
v -0.456398 0.192031 -0.034874
v -0.508259 0.192031 -0.058582
v -0.525298 0.192031 -0.088216
v -0.517890 0.192031 -0.135631
v -0.500109 0.192031 -0.180823
v -0.391167 0.307424 0.007348
v -0.154263 0.271727 0.223651
v -0.442053 0.271727 -0.220235
v -0.223452 0.280892 -0.052001
v -0.388974 0.298258 0.058489
v -0.397735 0.298258 0.100957
v -0.390912 0.298258 0.136434
v -0.347931 0.298258 0.178732
v -0.279025 0.298258 0.222396
v -0.409365 0.298258 -0.023319
v -0.447538 0.298258 -0.033444
v -0.495295 0.298258 -0.055276
v -0.510986 0.298258 -0.082565
v -0.504164 0.298258 -0.126229
v -0.487790 0.298258 -0.167845
v -0.222417 0.000000 0.528613
v -0.171828 0.000000 -0.797534
v -0.033191 0.000000 -0.800196
v -0.083780 0.000000 0.536601
v 0.104714 0.000000 -0.799003
v 0.053217 0.000000 0.561787
v 0.232235 0.000000 -0.794177
v 0.180738 0.000000 0.566612
v 0.389426 0.000000 -0.769042
v 0.330942 0.000000 0.510912
v 0.458072 0.000000 -0.685992
v 0.447575 0.000000 0.435679
v 0.516765 0.000000 -0.378280
v 0.508638 0.000000 0.228600
v 0.592434 0.000000 -0.240589
v 0.576450 0.000000 0.096657
v -0.335092 0.000000 0.524315
v -0.295934 0.000000 -0.775160
v -0.330455 0.000000 -0.533336
v 0.589335 0.000000 -0.175185
v -0.365149 -0.001569 -0.717682
v -0.377929 -0.001569 -0.667599
v -0.648741 0.000000 0.390782
v -0.635385 0.000000 -0.314238
v -0.734934 0.000000 0.249718
v -0.746077 0.000000 -0.258202
v -0.868148 0.000000 -0.085612
v -0.924310 0.000000 -0.179671
vn -0.0000 1.0000 -0.0000
vn -0.0190 0.1263 -0.9918
vn -0.0355 0.9994 -0.0013
vn -0.0567 0.1652 0.9846
vn -0.0007 -0.9996 0.0267
vn 0.0064 0.1251 -0.9921
vn -0.1799 -0.2235 0.9579
vn -0.0325 -0.9934 -0.1101
vn 0.3507 -0.2422 0.9046
vn 0.0375 0.1247 -0.9915
vn -0.0368 -0.2279 0.9730
vn 0.0041 -0.9942 -0.1078
vn 0.2871 0.9579 0.0082
vn 0.1360 -0.9852 -0.1046
vn 0.1289 0.9916 0.0054
vn 0.1644 0.1343 -0.9772
vn 0.8733 0.4872 0.0094
vn 0.7741 0.1583 -0.6130
vn 0.5450 -0.2613 0.7966
vn 0.5339 -0.8447 -0.0366
vn 0.5993 0.8004 0.0153
vn 0.9718 0.1774 -0.1553
vn 0.9410 -0.2638 0.2118
vn 0.8678 -0.4969 0.0093
vn 0.9081 0.4165 0.0430
vn 0.8581 0.3014 -0.4157
vn 0.8247 -0.4542 0.3370
vn 0.5610 -0.8277 0.0143
vn -0.9199 0.3864 -0.0662
vn -0.1281 -0.9917 0.0082
vn -0.1746 -0.1785 -0.9683
vn -0.0376 0.1645 0.9857
vn -0.1290 -0.9899 -0.0581
vn -0.0000 -1.0000 -0.0000
vn 0.5993 -0.8004 0.0153
vn 0.8733 -0.4872 0.0094
vn 0.5610 0.8277 0.0143
vn 0.4097 -0.9119 0.0253
vn 0.8678 0.4969 0.0093
vn 0.1248 0.9922 0.0052
vn 0.1329 -0.9906 0.0322
vn 0.3603 0.9328 0.0103
vn -0.0010 -0.9997 0.0261
vn -0.0384 -0.9990 0.0249
vn -0.0013 -0.9939 -0.1104
vn -0.9459 0.1644 -0.2799
vn -0.9208 -0.3887 -0.0320
vn -0.9313 0.1430 0.3351
vn -0.6942 -0.2093 -0.6887
vn -0.4179 -0.2199 -0.8815
vn -0.5787 -0.2271 -0.7833
vn -0.3856 0.1762 0.9057
vn -0.8383 0.1868 0.5122
vn -0.8957 0.2351 0.3775
vn -0.3828 -0.1930 -0.9034
vn -0.9136 0.1833 0.3629
vn -0.8508 0.4716 0.2319
vn 0.2125 0.0632 -0.9751
vn 0.8596 0.4181 0.2938
vn -0.3318 0.6375 0.6954
vn 0.0051 -0.9769 -0.2138
vn -0.1464 0.9673 0.2071
vn 0.0722 0.9732 0.2184
vn 0.0627 -0.9761 -0.2082
vn 0.1388 0.6548 0.7430
vn 0.1396 0.0678 -0.9879
vn -0.0403 -0.9988 0.0261
vn 0.0982 0.9950 -0.0193
vn -0.4157 0.0224 0.9092
vn -0.9997 0.0106 0.0219
vn -0.8634 0.0899 0.4965
vn -0.9773 0.0184 -0.2109
vn -0.9783 0.1399 -0.1529
vn -0.9802 0.0602 0.1885
vn -0.9199 0.1509 -0.3619
vn -0.6969 0.1140 0.7081
vn -0.7163 0.1898 -0.6715
vn -0.5304 0.1339 0.8371
vn 0.0124 0.2178 0.9759
vn -0.8529 0.0086 0.5221
vn 0.9118 0.3829 -0.1483
vn -0.2608 0.0105 0.9653
vn 0.4436 0.4663 -0.7653
vn 0.0933 0.9802 -0.1746
vn 0.1542 0.9880 -0.0059
vn 0.1084 0.9903 -0.0864
vn -0.8998 -0.2501 0.3575
vn -0.3774 0.1612 -0.9119
vn -0.8927 -0.3229 0.3143
vn -0.8252 -0.2547 0.5042
vn -0.3802 -0.2407 0.8930
vn -0.5866 0.1756 -0.7906
vn -0.4476 0.1827 -0.8753
vn -0.6343 0.1323 -0.7617
vn -0.9310 -0.2020 0.3040
vn -0.9153 -0.3038 -0.2645
vn 0.8548 -0.5174 0.0405
vn -0.0371 -0.2251 0.9736
vn -0.1759 0.1298 -0.9758
vn 0.8572 0.3567 0.3715
vn 0.8346 -0.3920 -0.3869
vn 0.9526 0.1978 0.2310
vn 0.9604 -0.2389 -0.1432
vn 0.5482 0.1923 0.8139
vn 0.7700 -0.2160 -0.6003
vn 0.1660 -0.1847 -0.9687
vn -0.0373 0.1665 0.9853
vn 0.0373 -0.1716 -0.9845
vn 0.3521 0.1774 0.9190
vn -0.1811 0.1633 0.9698
vn 0.0056 -0.1721 -0.9851
vn -0.0560 -0.2260 0.9725
vn -0.0189 -0.1737 -0.9846
vt 0.875000 0.548484
vt 0.875000 0.500000
vt 0.500000 0.250000
vt 0.625000 0.250000
vt 0.625000 0.500000
vt 0.500000 0.500000
vt 0.625000 0.548484
vt 0.625000 0.750000
vt 0.500000 0.750000
vt 0.625000 1.000000
vt 0.500000 1.000000
vt 0.125000 0.548484
vt 0.375000 0.548484
vt 0.375000 0.750000
vt 0.125000 0.750000
vt 0.875000 0.750000
vt 0.375000 0.500000
vt 0.375000 0.548484
vt 0.625000 0.548484
vt 0.375000 0.548484
vt 0.500000 0.548484
vt 0.375000 0.250000
vt 0.125000 0.500000
vt 0.125000 0.553825
vt 0.500000 0.201516
vt 0.625000 0.201516
vt 0.374053 0.201516
vt 0.374026 0.201516
vt 0.375000 0.201516
vt 0.125000 0.556288
vt 0.500000 0.000000
vt 0.625000 0.000000
vt 0.375000 0.000000
vt 0.375000 0.375000
vt 0.625000 0.375000
vt 0.375000 0.875000
vt 0.625000 0.875000
vt 0.375000 1.000000
vt 0.250000 0.500000
vt 0.250000 0.750000
vt 0.750000 0.500000
vt 0.750000 0.750000
vt 0.000000 0.000000
vt 0.000000 1.000000
vt 1.000000 1.000000
vt 1.000000 0.000000
s 0
f 38/1/1 4/2/1 36/2/1 54/1/1
f 114/3/2 4/4/2 8/5/2 115/6/2
f 40/7/3 6/8/3 10/8/3 42/7/3
f 116/9/4 6/8/4 2/10/4 113/11/4
f 37/12/5 39/13/5 5/14/5 1/15/5
f 40/7/1 38/1/1 2/16/1 6/8/1
f 42/7/1 10/8/1 14/8/1 44/7/1
f 115/6/6 8/5/6 12/5/6 117/6/6
f 116/9/7 5/14/7 9/14/7 118/9/7
f 39/13/8 7/17/8 11/17/8 41/18/8
f 120/9/9 13/14/9 17/14/9 122/9/9
f 117/6/10 12/5/10 16/5/10 119/6/10
f 118/9/11 9/14/11 13/14/11 120/9/11
f 41/18/12 11/17/12 15/17/12 43/13/12
f 46/19/13 18/8/13 22/8/13 48/7/13
f 43/13/14 15/17/14 19/17/14 45/13/14
f 44/7/15 14/8/15 18/8/15 46/19/15
f 119/6/16 16/5/16 20/5/16 121/6/16
f 48/7/17 22/8/17 26/8/17 50/7/17
f 121/6/18 20/5/18 24/5/18 123/6/18
f 122/9/19 17/14/19 21/14/19 124/9/19
f 45/13/20 19/17/20 23/17/20 47/20/20
f 50/7/21 26/8/21 30/8/21 52/7/21
f 123/6/22 24/5/22 28/5/22 125/6/22
f 124/9/23 21/14/23 25/14/23 126/9/23
f 47/20/24 23/17/24 27/17/24 49/13/24
f 132/21/25 52/7/25 30/8/25 128/9/25
f 125/6/26 28/5/26 32/5/26 127/6/26
f 126/9/27 25/14/27 29/14/27 128/9/27
f 49/13/28 27/17/28 31/17/28 51/13/28
f 54/1/29 36/2/29 56/2/29 58/1/29
f 37/12/30 1/15/30 33/15/30 53/12/30
f 114/3/31 3/22/31 35/22/31 130/3/31
f 113/11/32 2/10/32 34/10/32 129/11/32
f 3/23/33 37/12/33 53/12/33 35/23/33
f 53/12/34 33/15/34 59/15/34 61/24/34
f 25/14/35 49/13/35 51/13/35 29/14/35
f 127/6/25 32/5/25 52/7/25 132/21/25
f 21/14/36 47/20/36 49/13/36 25/14/36
f 28/5/37 50/7/37 52/7/37 32/5/37
f 17/14/38 45/13/38 47/20/38 21/14/38
f 24/5/39 48/7/39 50/7/39 28/5/39
f 16/5/40 44/7/40 46/19/40 20/5/40
f 13/14/41 43/13/41 45/13/41 17/14/41
f 20/5/42 46/19/42 48/7/42 24/5/42
f 9/14/43 41/18/43 43/13/43 13/14/43
f 5/14/44 39/13/44 41/18/44 9/14/44
f 12/5/1 42/7/1 44/7/1 16/5/1
f 8/5/1 4/2/1 38/1/1 40/7/1
f 3/23/45 7/17/45 39/13/45 37/12/45
f 8/5/3 40/7/3 42/7/3 12/5/3
f 2/16/1 38/1/1 54/1/1 34/16/1
f 134/25/46 58/26/46 56/4/46 133/3/46
f 35/23/47 53/12/47 57/12/47 55/23/47
f 131/25/48 54/26/48 58/26/48 134/25/48
f 130/3/49 35/22/49 55/22/49 133/3/49
f 136/25/50 61/27/50 65/28/50 138/25/50
f 131/25/51 53/29/51 61/27/51 136/25/51
f 34/16/1 54/1/1 62/1/1 60/16/1
f 129/11/52 34/10/52 60/10/52 135/11/52
f 64/16/1 66/1/1 70/1/1 68/16/1
f 135/11/53 60/10/53 64/10/53 137/11/53
f 60/16/1 62/1/1 66/1/1 64/16/1
f 61/24/34 59/15/34 63/15/34 65/30/34
f 139/31/54 68/32/54 70/26/54 140/25/54
f 65/30/34 63/15/34 67/15/34 69/12/34
f 138/25/55 65/28/55 69/29/55 140/25/55
f 137/11/56 64/10/56 68/10/56 139/11/56
f 71/33/57 72/32/57 74/4/57 73/22/57
f 79/34/58 80/35/58 78/5/58 77/17/58
f 77/17/59 78/5/59 76/8/59 75/14/59
f 81/36/60 82/37/60 72/10/60 71/38/60
f 79/39/61 77/17/61 75/14/61 81/40/61
f 80/41/62 74/2/62 72/16/62 82/42/62
f 78/5/63 80/41/63 82/42/63 76/8/63
f 73/23/64 79/39/64 81/40/64 71/15/64
f 75/14/65 76/8/65 82/37/65 81/36/65
f 73/22/66 74/4/66 80/35/66 79/34/66
f 83/43/67 92/43/67 93/43/67 94/43/67 95/43/67 96/43/67 97/43/67 85/44/67 86/45/67 84/46/67 91/43/67 90/43/67 89/43/67 88/43/67 87/43/67
f 98/43/68 102/43/68 103/43/68 104/43/68 105/43/68 106/43/68 99/46/68
f 94/43/69 93/43/69 108/43/69 109/43/69
f 83/43/70 87/43/70 102/43/70 98/43/70
f 95/43/71 94/43/71 109/43/71 110/43/71
f 87/43/72 88/43/72 103/43/72 102/43/72
f 96/43/73 95/43/73 110/43/73 111/43/73
f 88/43/74 89/43/74 104/43/74 103/43/74
f 97/43/75 96/43/75 111/43/75 112/43/75
f 89/43/76 90/43/76 105/43/76 104/43/76
f 85/44/77 97/43/77 112/43/77 100/44/77
f 90/43/78 91/43/78 106/43/78 105/43/78
f 91/43/79 84/46/79 99/46/79 106/43/79
f 92/43/80 83/43/80 98/43/80 107/43/80
f 84/46/81 86/45/81 101/45/81 99/46/81
f 93/43/82 92/43/82 107/43/82 108/43/82
f 86/45/83 85/44/83 100/44/83 101/45/83
f 98/43/84 101/45/84 100/44/84
f 101/45/85 98/43/85 99/46/85
f 107/43/86 98/43/86 100/44/86 112/43/86 111/43/86 110/43/86 109/43/86 108/43/86
f 63/38/87 137/11/87 139/11/87 67/38/87
f 66/26/88 138/25/88 140/25/88 70/26/88
f 67/33/89 139/31/89 140/25/89 69/29/89
f 59/38/90 135/11/90 137/11/90 63/38/90
f 33/38/91 129/11/91 135/11/91 59/38/91
f 54/26/92 131/25/92 136/25/92 62/26/92
f 62/26/93 136/25/93 138/25/93 66/26/93
f 36/4/94 130/3/94 133/3/94 56/4/94
f 53/29/95 131/25/95 134/25/95 57/29/95
f 57/29/96 134/25/96 133/3/96 55/22/96
f 31/17/97 127/6/97 132/21/97 51/13/97
f 1/38/98 113/11/98 129/11/98 33/38/98
f 4/4/99 114/3/99 130/3/99 36/4/99
f 26/8/100 126/9/100 128/9/100 30/8/100
f 27/17/101 125/6/101 127/6/101 31/17/101
f 51/13/97 132/21/97 128/9/97 29/14/97
f 22/8/102 124/9/102 126/9/102 26/8/102
f 23/17/103 123/6/103 125/6/103 27/17/103
f 18/8/104 122/9/104 124/9/104 22/8/104
f 19/17/105 121/6/105 123/6/105 23/17/105
f 15/17/106 119/6/106 121/6/106 19/17/106
f 10/8/107 118/9/107 120/9/107 14/8/107
f 11/17/108 117/6/108 119/6/108 15/17/108
f 14/8/109 120/9/109 122/9/109 18/8/109
f 6/8/110 116/9/110 118/9/110 10/8/110
f 7/17/111 115/6/111 117/6/111 11/17/111
f 5/14/112 116/9/112 113/11/112 1/38/112
f 3/22/113 114/3/113 115/6/113 7/17/113
